<?xml version="1.0" standalone="no"?>
<!DOCTYPE svg PUBLIC "-//W3C//DTD SVG 1.1//EN" "http://www.w3.org/Graphics/SVG/1.1/DTD/svg11.dtd" >
<svg xmlns="http://www.w3.org/2000/svg" xmlns:xlink="http://www.w3.org/1999/xlink" version="1.1">
<metadata>
Created by FontForge 20160407 at Sun May 29 20:26:36 2016
 By Jimmy Wärting
Generated by Fontographer 3.5
</metadata>
<defs>
<font id="HeliosCondLight" horiz-adv-x="904" >
  <font-face 
    font-family="Helios-Cond-Light"
    font-weight="300"
    font-stretch="normal"
    units-per-em="2048"
    panose-1="2 11 114 0 0 0 0 0 0 0"
    ascent="1638"
    descent="-410"
    x-height="1130"
    cap-height="1534"
    bbox="-113 -436 1954 1749"
    underline-thickness="0"
    underline-position="78"
    unicode-range="U+0020-2122"
  />
<missing-glyph horiz-adv-x="1566" 
d="M97 0v1566h1372v-1566h-1372zM1372 97v1372h-1178v-1372h1178z" />
    <glyph glyph-name=".notdef" horiz-adv-x="1566" 
d="M97 0v1566h1372v-1566h-1372zM1372 97v1372h-1178v-1372h1178z" />
    <glyph glyph-name=".null" horiz-adv-x="0" 
 />
    <glyph glyph-name="nonmarkingreturn" horiz-adv-x="508" 
 />
    <glyph glyph-name="space" unicode=" " horiz-adv-x="508" 
 />
    <glyph glyph-name="exclam" unicode="!" horiz-adv-x="451" 
d="M291 855l-16 -484h-96l-17 484v679h129v-679zM291 17h-145v176h145v-176z" />
    <glyph glyph-name="quotedbl" unicode="&#x22;" horiz-adv-x="630" 
d="M484 1066h-113v468h113v-468zM259 1066h-113v468h113v-468z" />
    <glyph glyph-name="numbersign" unicode="#" 
d="M872 984l-33 -112h-177l-65 -259h195l-33 -113h-193l-129 -500h-98l129 500h-146l-129 -500h-96l129 500h-209l32 113h210l63 275h-209l33 96h193l145 550h96l-143 -550h143l146 550h98l-145 -550h193zM566 888h-145l-66 -275h145z" />
    <glyph glyph-name="dollar" unicode="$" 
d="M855 355q0 -118 -44 -202t-124 -130.5t-187 -55.5v-160h-112v160q-82 0 -145 31t-109 90q-86 110 -86 298l1 51h130q0 -89 13.5 -162t59.5 -130q25 -31 58.5 -48t77.5 -17v599q-120 51 -188 103q-71 55 -103.5 129.5t-32.5 185.5q0 141 58.5 219.5t134 108t131.5 29.5
v145h112v-145q88 0 160 -47.5t110.5 -128.5t38.5 -176l-1 -36h-129q0 222 -179 275v-566q62 -28 111.5 -55t85.5 -51q71 -46 116 -124q42 -75 42 -190zM388 824v517q-195 -59 -195 -244q0 -88 56 -168.5t139 -104.5zM726 355q0 81 -37.5 134.5t-80.5 81.5q-19 12 -49 28
t-59 31v-550q70 0 121 37.5t78 100.5t27 137z" />
    <glyph glyph-name="percent" unicode="%" horiz-adv-x="1583" 
d="M689 1120q0 -51 -8 -95t-27 -89q-36 -87 -108 -140.5t-175 -53.5q-78 0 -136.5 55.5t-89.5 144t-31 184.5q0 149 70.5 253.5t203.5 104.5l24 1q85 0 148.5 -51.5t96 -135.5t32.5 -178zM1113 1501l-405 -1048l-191 -486h-96l405 1048l191 486h96zM1424 348
q0 -95 -30.5 -178t-94.5 -135t-153 -52t-154.5 53t-97.5 138q-16 43 -24 87t-8 94q0 97 31.5 181t96.5 137t156 53q86 0 151 -54q62 -51 94.5 -140t32.5 -184zM559 1136q0 113 -40 191t-115 78q-73 0 -113.5 -83.5t-40.5 -199.5q0 -74 16.5 -138t47.5 -104.5t74 -40.5
q81 0 126 88.5t45 208.5zM1304 347q0 75 -18.5 144t-55 112t-84.5 43q-69 0 -110 -87.5t-41 -204.5q0 -112 39 -193t112 -81q76 0 117 77.5t41 189.5z" />
    <glyph glyph-name="ampersand" unicode="&#x26;" horiz-adv-x="1243" 
d="M1179 0h-178l-80 129q-61 -75 -162.5 -116.5t-214.5 -41.5q-114 0 -212.5 45t-159 137t-60.5 229l1 39q0 71 22 139q19 61 54 116q66 104 215 228q-35 46 -65 95.5t-48 92.5q-36 90 -36 190v33q3 17 4 26q0 36 12.5 66.5t35.5 59.5q41 54 104.5 81t129.5 27q78 0 145 -33
t110 -102t43 -165q0 -137 -71.5 -229t-187.5 -174l324 -468q50 121 50 306h143q0 -236 -96 -451zM695 1278q0 71 -41 115t-121 44q-73 0 -113.5 -41t-40.5 -113q0 -142 138 -315q81 55 129.5 142t48.5 168zM839 242l-371 550q-130 -108 -169.5 -198.5t-39.5 -205.5
q0 -88 42 -155.5t112.5 -103.5t147.5 -36q80 0 153.5 37.5t124.5 111.5z" />
    <glyph glyph-name="quotesingle" unicode="'" horiz-adv-x="613" 
 />
    <glyph glyph-name="parenleft" unicode="(" horiz-adv-x="566" 
d="M484 -388h-96q-67 100 -129 226q-58 120 -96.5 247.5t-58.5 253.5q-10 65 -15 128t-5 134q0 252 75.5 499t228.5 466h96q-53 -93 -99 -202.5t-82.5 -240t-57 -269.5t-20.5 -285q0 -515 259 -957z" />
    <glyph glyph-name="parenright" unicode=")" horiz-adv-x="566" 
d="M451 561q0 -177 -31 -346t-96 -322.5t-162 -280.5h-98q78 112 135 270t87 339q15 94 22 179.5t7 184.5q0 189 -30.5 370.5t-95 338t-156.5 272.5h113q34 -41 66 -91t62 -110q57 -113 96 -241.5t60 -271.5t21 -291z" />
    <glyph glyph-name="asterisk" unicode="*" horiz-adv-x="792" 
d="M695 1292l-227 -80l162 -195l-80 -49l-162 195l-146 -195l-80 49l146 195l-228 80l33 80l226 -80v225h98v-225l225 80z" />
    <glyph glyph-name="plus" unicode="+" 
d="M872 451h-372v-451h-96v451h-371v99h371v451h96v-451h372v-99z" />
    <glyph glyph-name="comma" unicode="," horiz-adv-x="451" 
d="M308 -64q0 -88 -36.5 -151.5t-125.5 -75.5v82q40 16 55.5 34t20.5 52l4 106h-80v196h162v-243z" />
    <glyph glyph-name="hyphen" unicode="-" 
d="M872 451h-839v99h839v-99z" />
    <glyph glyph-name="period" unicode="." horiz-adv-x="451" 
d="M308 0h-162v179h162v-179z" />
    <glyph glyph-name="slash" unicode="/" horiz-adv-x="566" 
d="M597 1534l-312 -1048l-205 -679h-113l304 1048l197 679h129z" />
    <glyph glyph-name="zero" unicode="0" 
d="M839 759q0 -197 -15.5 -334t-57.5 -242t-119 -161.5t-198 -56.5l-45 2q-76 0 -133.5 40.5t-96.5 117.5q-75 150 -92.5 334t-17.5 396q0 113 18 220q13 75 40 172q43 147 120 217t196 70h30q51 0 94.5 -18t83.5 -53q72 -65 114 -172q20 -51 35.5 -112.5t25.5 -129.5
q18 -135 18 -290zM695 759q0 166 -11.5 280.5t-39.5 199.5t-79 133.5t-128 48.5q-39 0 -70.5 -13t-56.5 -37q-45 -43 -65 -120.5t-31 -187.5l-21 -255q0 -39 5 -166q2 -51 2 -92q0 -56 9 -117q5 -35 22 -115q25 -113 75.5 -183.5t130.5 -70.5q106 0 163 88t76 234.5
t19 372.5z" />
    <glyph glyph-name="one" unicode="1" 
d="M580 0h-143v1048v115l-258 -17h-66v97l37 -1q199 0 258.5 82.5t59.5 200.5v25h112v-1047v-503z" />
    <glyph glyph-name="two" unicode="2" 
d="M811 1113q0 -152 -83 -282.5t-255 -296.5q-80 -78 -143 -142q-55 -56 -86.5 -91.5t-48 -73.5t-16.5 -81h629v-146h-744q-2 16 -3 37.5t-1 37.5q0 171 77.5 288.5t228 252.5t223.5 231t73 234v16q0 308 -241 308q-81 0 -127 -33.5t-65 -108.5q-10 -37 -15 -84.5t-5 -112.5
h-129q0 242 89 355t282 113q98 0 177 -53.5t125 -138.5t55 -179z" />
    <glyph glyph-name="three" unicode="3" 
d="M824 355q0 -126 -54 -217.5t-144 -140.5t-190 -49q-101 0 -189 48.5t-143 148.5t-55 241v18h130q0 -80 19.5 -142.5t56.5 -105.5q72 -83 171 -83q63 0 121 34t95 99t37 149v9v7q0 190 -74.5 265t-231.5 75l-65 -1v129q24 -4 59 -4q128 0 204 78t76 200l-1 33v8l1 9
q0 72 -30 126.5t-81 84.5q-23 14 -49.5 21t-53.5 7q-56 0 -102.5 -29.5t-76 -90t-29.5 -147.5v-10l1 -12h-129q0 129 44.5 220.5t119.5 137.5t160 46q107 0 185.5 -43t123.5 -131t45 -213q0 -88 -21.5 -147.5t-68.5 -105.5q-21 -21 -52 -43t-67 -42q120 -30 189 -123
t69 -314z" />
    <glyph glyph-name="four" unicode="4" 
d="M839 421h-129v-421h-144v421h-517v129l517 967h144v-984h129v-112zM566 533v759l-387 -759h387z" />
    <glyph glyph-name="five" unicode="5" 
d="M825 465l-1 -14q0 -78 -17 -143.5t-50 -126.5q-59 -111 -149 -164t-187 -53q-93 0 -175 45t-132.5 131.5t-50.5 201.5l1 29h129q0 -68 19 -121t52 -93q60 -71 144 -71q65 0 128.5 43.5t102.5 123.5q20 42 30 86.5t10 97.5v15v18q0 210 -68.5 308t-169.5 98
q-71 0 -132 -43t-83 -107h-129l96 776h566v-130h-451l-66 -468q98 91 226 91q93 0 174.5 -55.5t132 -172t50.5 -286.5v-16z" />
    <glyph glyph-name="six" unicode="6" 
d="M839 500q0 -259 -98.5 -396t-272.5 -137q-140 0 -228 94.5t-125.5 252t-37.5 355.5q0 247 52 526q22 107 76.5 180t129 109.5t155.5 36.5t155.5 -38.5t119 -112.5t44.5 -174l-1 -9v-8h-129l3 31q0 85 -56.5 141t-133.5 56q-72 0 -134.5 -52.5t-98.5 -159.5
q-8 -24 -13.5 -44.5t-10.5 -47.5l-13 -119l-13 -160q113 140 280 140q90 0 167 -49t129 -156q25 -52 39.5 -118t14.5 -141zM714 476q0 100 -30.5 188t-92.5 139.5t-154 51.5q-75 -9 -124 -59.5t-74 -129t-25 -166.5q0 -106 31.5 -202.5t89.5 -157t133 -60.5q74 0 130.5 55.5
t86 148t29.5 192.5z" />
    <glyph glyph-name="seven" unicode="7" 
d="M839 1372q-60 -72 -142.5 -221.5t-156.5 -333.5q-36 -90 -66 -185t-56 -203q-48 -203 -48 -389l1 -40h-145q0 84 8 166.5t26 179.5q35 182 97 362q30 86 68 175t81 175q88 171 189 314h-598v130h742v-130z" />
    <glyph glyph-name="eight" unicode="8" 
d="M838 406q0 -82 -21 -159q-10 -37 -26.5 -72t-38.5 -67q-44 -62 -110 -99q-35 -20 -73.5 -31t-84.5 -11l-32 -1q-126 0 -211.5 58.5t-127 154.5t-41.5 205q0 133 54.5 247.5t148.5 160.5q-75 49 -115 140.5t-40 197.5q0 104 40 197t119.5 150t188.5 57t185 -54.5
t111.5 -143.5t35.5 -189q0 -75 -20.5 -149t-59.5 -128t-90 -78q64 -18 111.5 -75.5t72 -138t24.5 -172.5zM662 1134q0 111 -50 191t-144 80q-65 0 -114 -42t-73 -109.5t-24 -142.5q0 -114 49.5 -194t140.5 -80l21 2q57 0 105 46q44 42 66.5 109t22.5 140zM707 403
q0 84 -27.5 159t-80 120t-125.5 45l-23 -1q-78 0 -133 -42t-81.5 -112t-26.5 -150q0 -87 28.5 -165t84 -127.5t128.5 -49.5q83 0 141 46t86.5 120.5t28.5 156.5z" />
    <glyph glyph-name="nine" unicode="9" 
d="M826 723q0 -257 -43.5 -426t-134.5 -255q-46 -43 -103 -67t-124 -24q-86 0 -155.5 40.5t-111.5 115.5t-42 169l1 32h129l-3 -28q0 -77 62.5 -141t141.5 -64q127 0 203 167q32 62 41 170q0 28 4 122.5t4 127.5q-124 -151 -270 -151q-86 0 -161 52t-118 132
q-62 126 -62 304q0 130 36.5 248t112.5 196.5t188 90.5l31 1q125 0 201.5 -79.5t114.5 -199.5q35 -115 45.5 -226t10.5 -222zM697 988q0 102 -28 198t-81 157.5t-120 61.5h-17q-68 0 -119.5 -58.5t-80.5 -156.5q-14 -50 -21 -97.5t-7 -101.5q0 -152 58.5 -256.5
t169.5 -104.5q123 0 184.5 103.5t61.5 254.5z" />
    <glyph glyph-name="colon" unicode=":" horiz-adv-x="451" 
d="M308 872h-162v178h162v-178zM308 33h-162v176h162v-176z" />
    <glyph glyph-name="semicolon" unicode=";" horiz-adv-x="451" 
d="M291 888h-162v178h162v-178zM291 -17q0 -87 -36 -150t-126 -75v80q41 16 57 36.5t19.5 50t3.5 108.5h-80v193h162v-243z" />
    <glyph glyph-name="less" unicode="&#x3c;" 
d="M888 -33l-855 484v99l855 483v-129l-759 -404l759 -403v-130z" />
    <glyph glyph-name="equal" unicode="=" 
d="M888 613h-839v113h839v-113zM888 259h-839v112h839v-112z" />
    <glyph glyph-name="greater" unicode="&#x3e;" 
d="M872 451l-839 -484v130l742 403l-742 421v129l839 -484v-115z" />
    <glyph glyph-name="question" unicode="?" horiz-adv-x="792" 
d="M728 1166q0 -104 -41 -188.5t-118 -189.5q-40 -53 -68.5 -95t-45.5 -72q-34 -61 -34 -137v-129h-130v145q11 87 52 162q21 39 51 86t68 101q78 112 114.5 182.5t36.5 147.5q0 83 -31 142.5t-81 90.5t-109 31t-112 -34.5t-85.5 -104.5t-32.5 -169v-10v-12h-129l-2 56
q0 129 47.5 217.5t126 132t170.5 43.5q91 0 170.5 -40t130 -117.5t50.5 -178.5v-14zM437 0h-162v179h162v-179z" />
    <glyph glyph-name="at" unicode="@" horiz-adv-x="1630" 
d="M1595 893q0 -94 -29 -183q-49 -148 -128 -246t-170 -146t-170 -48q-65 0 -108.5 30.5t-52.5 87.5q-132 -103 -261 -103q-128 0 -212 96t-84 251q0 171 104 352q57 116 172.5 198.5t232.5 82.5q145 0 241 -135l33 96h112l-225 -693q-14 -44 -14 -74q0 -43 22.5 -65.5
t59.5 -22.5q89 0 174 97q192 207 192 447q0 150 -78.5 277.5t-222 202.5t-328.5 75q-151 0 -285 -63q-124 -58 -216 -160q-42 -48 -76.5 -106t-57.5 -121q-45 -125 -45 -258q0 -195 99 -365.5t292 -267.5q134 -71 297 -71q111 0 217.5 33.5t200 101t156.5 162.5h129
q-28 -60 -67.5 -112t-96.5 -100q-109 -92 -253.5 -144.5t-290.5 -52.5q-302 0 -519 200q-93 69 -158 167t-98 212.5t-33 235.5q0 155 52 299t158 262.5t258 186.5q81 37 167.5 55.5t186.5 18.5h11l14 1q222 0 380 -102.5t238 -262t80 -326.5zM1083 978q0 80 -53 129.5
t-135 49.5q-65 0 -135 -36t-135 -116t-108 -197q-25 -84 -25 -154q0 -122 63.5 -195t155.5 -73q71 0 139 48t118 146l98 308q17 49 17 90z" />
    <glyph glyph-name="A" unicode="A" horiz-adv-x="1017" 
d="M1001 0h-146l-113 484h-451l-129 -484h-145l287 1048l133 486h143l287 -1048zM710 613l-210 775l-178 -775h388z" />
    <glyph glyph-name="B" unicode="B" horiz-adv-x="1017" 
d="M947 453q0 -79 -21.5 -154.5t-76 -142t-153.5 -110.5q-51 -21 -113 -33.5t-132 -12.5h-322v1048v486h421q103 0 181 -48t119.5 -135.5t41.5 -194.5q0 -240 -213 -317q66 -12 128.5 -68.5t101 -142t38.5 -175.5zM755 1165q0 105 -71 180.5t-200 75.5h-209v-533l193 2
q47 0 85 9t72 29q64 39 97 102t33 135zM802 431q0 149 -73.5 238.5t-211.5 89.5h-242v-629l209 -2q152 0 235 86.5t83 216.5z" />
    <glyph glyph-name="C" unicode="C" horiz-adv-x="1130" 
d="M1017 533q0 -150 -44 -268q-40 -107 -111 -179q-131 -135 -312 -135q-208 0 -314.5 209.5t-106.5 614.5l16 226q0 68 15 140q11 54 36 128q39 123 128 202t242 79q139 0 232.5 -46.5t143.5 -145.5q27 -53 43 -119t16 -142h-146q0 78 -22 141.5t-59 111.5q-68 87 -208 87
q-88 0 -145.5 -52t-89.5 -148t-44 -225.5t-12 -301.5q0 -251 61.5 -440.5t260.5 -189.5q97 0 159 68.5t89 172.5t27 212h145z" />
    <glyph glyph-name="D" unicode="D" horiz-adv-x="1130" 
d="M1033 792q0 -192 -30 -336t-95 -248t-162.5 -156t-228.5 -52h-371v1048v486h338q207 0 327.5 -77t171 -238.5t50.5 -426.5zM872 839q0 186 -25.5 301t-113.5 181t-265 66h-177v-194v-1047h226q129 0 209 92t113 247t33 354z" />
    <glyph glyph-name="E" unicode="E" 
d="M839 0h-693v1048v486h693v-147h-548v-499h484v-146h-484v-596h548v-146z" />
    <glyph glyph-name="F" unicode="F" 
d="M839 1405h-564v-533h517v-130h-517v-742h-146v1048v486h710v-129z" />
    <glyph glyph-name="G" unicode="G" horiz-adv-x="1130" 
d="M968 0h-96v193q-37 -84 -98 -136q-28 -23 -60 -41t-67 -30q-69 -20 -136 -20q-73 0 -123 17q-99 38 -161.5 126.5t-94.5 208.5t-44 246q0 39 -3 93q-7 125 -7 159l1 105l1 80q0 106 22.5 205t74 182.5t132.5 130.5t191 47h31q43 0 71 -2t63 -9q63 -11 122.5 -54t105 -139
t61.5 -249h-130q-18 131 -63.5 205t-102.5 102t-121 28q-46 0 -82 -10q-16 -5 -29.5 -9t-21.5 -8q-196 -69 -196 -636l1 -91v-64q0 -199 52.5 -322.5t125 -175.5t130.5 -52q86 0 160 61.5t118.5 180.5t44.5 274v27l-1 23h-322v129h451v-775z" />
    <glyph glyph-name="H" unicode="H" horiz-adv-x="1130" 
d="M984 0h-145v742h-564v-742h-146v1048v486h146v-662h564v662h145v-1048v-486z" />
    <glyph glyph-name="I" unicode="I" horiz-adv-x="451" 
d="M308 0h-146v1048v486h146v-1048v-486z" />
    <glyph glyph-name="J" unicode="J" horiz-adv-x="792" 
d="M679 355q0 -122 -36.5 -209t-107 -133.5t-165.5 -46.5l-31 1q-75 0 -131.5 28.5t-98.5 82.5q-77 100 -77 311l1 62h146l-2 -65q0 -289 162 -289q73 0 112.5 17.5t60.5 70t21 154.5v1047v148h146v-1048v-131z" />
    <glyph glyph-name="K" unicode="K" horiz-adv-x="1017" 
d="M984 0h-160l-403 759l-162 -209v-550h-146v1048v486h146v-759l533 759h176l-451 -646z" />
    <glyph glyph-name="L" unicode="L" 
d="M855 0h-709v1048v486h145v-1048v-356h564v-130z" />
    <glyph glyph-name="M" unicode="M" horiz-adv-x="1470" 
d="M1325 0h-146v1048v307l-285 -1047l-86 -308h-146l-289 1048l-82 293v-1048v-293h-145v1048v486h225l277 -1048l78 -293l289 1048l82 293h228v-1048v-486z" />
    <glyph glyph-name="N" unicode="N" horiz-adv-x="1130" 
d="M1001 0h-162l-445 1048l-119 277v-1048v-277h-146h146h-146v1048v486h179l322 -726l225 -582v1047v261h146v-1048v-486z" />
    <glyph glyph-name="O" unicode="O" horiz-adv-x="1130" 
d="M1033 773q0 -206 -27.5 -375.5t-135 -300t-320.5 -130.5q-199 0 -296 130.5t-119 298.5q-10 80 -16 183t-6 213v50l-1 69q0 79 7 153t22 141q30 135 132 237q51 52 125.5 80t167.5 28q68 0 123.5 -15.5t104.5 -45.5q90 -53 143 -153.5t74.5 -236.5t21.5 -326zM896 742v31
v27q0 145 -18 275t-92 238.5t-220 123.5q-129 0 -199 -84t-94 -227q-11 -69 -17 -158t-6 -195q0 -168 16.5 -313.5t84.5 -259.5q34 -58 83.5 -89t115.5 -31h9h8q146 0 218.5 107.5t91.5 247.5t19 307z" />
    <glyph glyph-name="P" unicode="P" horiz-adv-x="1017" 
d="M979 1142q0 -111 -38 -194.5t-103.5 -139t-155 -84.5t-182.5 -29h-192v-695h-146v1048v486h355q125 0 215.5 -30t143.5 -82.5t78 -122t25 -157.5zM843 1136q0 92 -42.5 156t-114.5 96.5t-155 32.5h-223v-596h225q77 0 148.5 34.5t116.5 105.5t45 171z" />
    <glyph glyph-name="Q" unicode="Q" horiz-adv-x="1130" 
d="M1083 0l-82 -97l-162 130q-110 -80 -248 -80q-116 0 -218.5 68t-170.5 225q-34 78 -53.5 180t-19.5 220l-3 176q0 232 36 387.5t135 250.5q52 49 120 76q75 30 163 30q75 0 137 -22.5t111 -65.5q94 -84 138 -202t55.5 -233t11.5 -217v-34q0 -517 -112 -663zM889 614v80
l-1 98q0 116 -13 213t-36 172q-41 139 -106 191.5t-153 52.5q-77 0 -144.5 -45t-109.5 -125t-51 -185q0 -47 -5.5 -150t-5.5 -132q0 -366 81 -534t218 -168q72 0 163 47l-146 130l82 96l146 -146q48 66 65 163q8 46 12 107.5t4 134.5z" />
    <glyph glyph-name="R" unicode="R" horiz-adv-x="1017" 
d="M954 0h-146q-21 27 -29 58q-4 16 -7.5 39.5t-3.5 47.5q0 29 -1 38.5t-8 58.5l-7 117q0 44 -4 82.5t-19 99.5q-18 76 -72.5 130.5t-156.5 54.5h-225v-726h-146v1048v486h371q141 0 240 -55.5t146.5 -145t47.5 -190.5q0 -84 -32.5 -161.5t-94.5 -128t-145 -61.5
q99 -38 143.5 -80.5t63.5 -143.5q9 -51 14 -127.5t5 -181.5q0 -98 10.5 -156t55.5 -70v-33zM759 1136q0 73 -30 138.5t-93 106t-152 40.5h-209v-566h225l24 -1q72 0 125 39t81.5 104t28.5 139z" />
    <glyph glyph-name="S" unicode="S" horiz-adv-x="1017" 
d="M937 421q0 -144 -63 -248.5t-164.5 -159t-217.5 -54.5q-110 0 -209 53t-159 161.5t-60 262.5v15h129q24 -181 99 -267.5t208 -86.5q53 0 104.5 18t95 57.5t70 99t26.5 136.5v35q-3 17 -4 25q-11 101 -78.5 141.5t-249 117.5t-268 170t-86.5 271v32t4 43q16 146 124 227
t253 81q103 0 196.5 -42.5t152.5 -127.5q31 -44 47.5 -94t16.5 -108h-145q0 77 -41 138t-108 97t-136 36q-90 0 -155 -62.5t-77 -192.5l-2 -43q0 -137 82.5 -201.5t256.5 -133.5q88 -35 151.5 -70.5t110 -75.5t71.5 -99t25 -135v-16z" />
    <glyph glyph-name="T" unicode="T" 
d="M872 1387h-355v-1046v-341h-146v1047v340h-354v147h855v-147z" />
    <glyph glyph-name="U" unicode="U" horiz-adv-x="1130" 
d="M1001 355q0 -206 -118 -297t-317 -91l-38 -1q-180 0 -281 116.5t-101 354.5v1047v50h145v-1048v-49q0 -125 25.5 -199t85 -107.5t164.5 -33.5q145 0 217 70t72 254v1047v66h146v-1048v-131z" />
    <glyph glyph-name="V" unicode="V" horiz-adv-x="1050" 
d="M1017 1534l-297 -1048l-140 -486h-159l-275 1048l-129 486h162l248 -1048l73 -307l285 1047l87 308h145z" />
    <glyph glyph-name="W" unicode="W" horiz-adv-x="1470" 
d="M1437 1534l-209 -1048l-98 -486h-146l-205 1048l-53 260l-205 -1047l-53 -261h-146l-207 1048l-98 486h145l193 -1048l49 -260l193 1047l49 261h178l195 -1048l47 -244l183 1048l43 244h145z" />
    <glyph glyph-name="X" unicode="X" horiz-adv-x="1017" 
d="M984 0h-160l-324 646l-321 -646h-162l387 792l-371 742h176l291 -597l292 597h176l-371 -742z" />
    <glyph glyph-name="Y" unicode="Y" horiz-adv-x="1017" 
d="M968 1534l-388 -888v-646h-143v646l-404 888h146l338 -742l322 742h129z" />
    <glyph glyph-name="Z" unicode="Z" 
d="M839 0h-775v113l510 1048l121 244h-598v129h742v-129l-511 -1048l-119 -244h630v-113z" />
    <glyph glyph-name="bracketleft" unicode="[" horiz-adv-x="566" 
d="M484 -209h-322v1048v727h322v-96h-193v-1047v-536h193v-96z" />
    <glyph glyph-name="backslash" unicode="\" horiz-adv-x="613" 
d="M550 0h-129l-359 1048l-175 502h130l358 -1047z" />
    <glyph glyph-name="bracketright" unicode="]" horiz-adv-x="566" 
d="M421 -193h-324v96h194v1048v533h-211v99h341v-1048v-728z" />
    <glyph glyph-name="asciicircum" unicode="^" 
d="M775 695h-96l-228 677l-225 -677h-96l274 839h96z" />
    <glyph glyph-name="underscore" unicode="_" horiz-adv-x="1017" 
d="M1017 -226h-1034v130h1034v-130z" />
    <glyph glyph-name="grave" unicode="`" horiz-adv-x="1967" 
 />
    <glyph glyph-name="a" unicode="a" horiz-adv-x="792" 
d="M759 0h-48l-36 -1q-48 0 -71.5 8t-35 30.5t-18.5 75.5q-46 -57 -64.5 -75.5t-69.5 -36.5t-141 -18q-114 0 -177 79t-63 210q0 60 14 132q21 102 92 157t195 97.5t169 67t45 82.5q0 158 -44 216.5t-135 58.5q-90 0 -126.5 -53t-51.5 -175h-129q0 135 72.5 229.5
t218.5 94.5q127 0 197.5 -37t98.5 -114q14 -40 21 -88.5t7 -115.5v-615q0 -62 3 -81.5t18 -25t59 -5.5v-97zM550 404v242q-15 -29 -77 -56l-139 -60q-77 -33 -124.5 -81.5t-47.5 -126.5q0 -114 31.5 -169.5t128.5 -55.5q72 0 123 36t78 105t27 166z" />
    <glyph glyph-name="b" unicode="b" horiz-adv-x="890" 
d="M813 544q0 -312 -97.5 -451.5t-237.5 -139.5q-54 0 -106.5 20t-90.5 53.5t-51 70.5v-97h-113v1048v502h129v-517q23 46 95.5 86t149.5 40q81 0 152 -53t118 -184q24 -66 37.5 -152.5t13.5 -189.5v-17zM699 566q0 132 -24.5 240t-79.5 176t-140 68q-61 0 -113.5 -60.5
t-82 -163t-29.5 -213.5q0 -147 10.5 -252.5t57.5 -193.5t143 -103q73 0 131.5 65.5t92.5 181.5t34 255z" />
    <glyph glyph-name="c" unicode="c" horiz-adv-x="792" 
d="M710 371q0 -106 -26 -199.5t-97.5 -157t-198.5 -63.5q-340 0 -340 566l1 80q0 154 18.5 260t58 173.5t100 100t145.5 32.5q154 0 239 -94.5t85 -276.5h-115q-10 115 -63 186.5t-146 71.5q-110 0 -151 -117.5t-41 -319.5v-71q0 -189 37 -325.5t155 -136.5q91 0 137 40
t59 99.5t13 151.5h130z" />
    <glyph glyph-name="d" unicode="d" 
d="M775 0h-113v97q-21 -57 -92.5 -100.5t-155.5 -43.5q-86 0 -162 56.5t-124 189.5t-48 345v17v19q0 153 25.5 264t73.5 181q92 134 222 134q77 0 150 -40t95 -86v517h129v-1047v-503zM662 613q0 56 -7 109.5t-22 103.5q-30 101 -81.5 162.5t-114.5 61.5q-84 0 -138.5 -67.5
t-80 -177.5t-25.5 -239q0 -138 33 -253.5t92 -182t133 -66.5q97 15 143.5 104.5t56.5 194.5q5 49 8 113.5t3 136.5z" />
    <glyph glyph-name="e" unicode="e" horiz-adv-x="792" 
d="M731 668v-17v-14v-12q0 -47 -5 -75h-533v-17q0 -86 13.5 -188t60.5 -191.5t137 -89.5q97 0 146.5 76.5t49.5 169.5l-3 45h129l1 -37q0 -182 -96.5 -274.5t-226.5 -92.5q-57 0 -104.5 18.5t-85.5 52.5q-71 66 -103.5 161.5t-39.5 175t-7 174.5q0 93 5 160.5t18 130.5
q22 116 65.5 188t106 103t145.5 31q111 0 183.5 -61.5t108 -171t35.5 -245.5zM597 662q0 371 -193 371q-98 0 -149 -84q-27 -45 -43 -113q-19 -79 -19 -174h404z" />
    <glyph glyph-name="f" unicode="f" horiz-adv-x="451" 
d="M437 1437q-68 0 -96.5 -9.5t-39.5 -39.5q-10 -32 -10 -96v-162h130v-113h-130v-1017h-129v1017h-129v113h129v178q0 87 21 135t57.5 68.5t94.5 27.5l102 11v-113z" />
    <glyph glyph-name="g" unicode="g" 
d="M775 -49q0 -40 -6 -77.5t-20 -76.5q-26 -77 -97.5 -131t-200.5 -54h-30q-109 0 -203 58q-49 30 -77 84.5t-28 132.5h129l-1 -14q0 -52 61 -102.5t136 -50.5q30 0 46 5q180 30 180 301v21v16q-2 12 -2 17q-30 -44 -90.5 -72t-132.5 -28q-94 0 -174 53t-132.5 177
t-52.5 323v15v18q0 154 26.5 271t74.5 190q95 144 227 144q72 0 137.5 -39t100.5 -99v97h129v-1048v-131zM662 550q0 81 -9 151.5t-23 134.5q-23 108 -73 161t-136 53q-100 0 -156 -129q-28 -65 -42 -160.5t-14 -227.5q0 -89 10 -156t29 -126q32 -101 78.5 -136t110.5 -35
q85 0 131.5 54.5t65.5 152.5q11 62 19.5 127.5t8.5 135.5z" />
    <glyph glyph-name="h" unicode="h" 
d="M792 0h-130v888q0 75 -47 115.5t-118 40.5q-58 0 -113 -27.5t-90 -82t-35 -126.5v-808h-130v1048v486h130v-517q19 61 88 98.5t156 37.5q74 0 140.5 -30.5t107.5 -93.5t41 -157v-872z" />
    <glyph glyph-name="i" unicode="i" horiz-adv-x="451" 
d="M291 1326h-129v208h129v-208zM291 0h-129v1048v84h129v-1048v-84z" />
    <glyph glyph-name="j" unicode="j" horiz-adv-x="451" 
d="M322 1341h-160v193h160v-193zM308 -162q0 -125 -53 -177t-147 -52l-59 3v113l35 -3q95 0 95 116v1048v244h129v-1048v-244z" />
    <glyph glyph-name="k" unicode="k" horiz-adv-x="792" 
d="M775 0h-129l-275 580l-112 -143v-437h-130v1048v486h130v-908l354 504h146l-308 -435z" />
    <glyph glyph-name="l" unicode="l" horiz-adv-x="451" 
d="M291 0h-129v1048v486h129v-1048v-486z" />
    <glyph glyph-name="m" unicode="m" horiz-adv-x="1355" 
d="M1226 2h-113v855q0 93 -50.5 146.5t-122.5 53.5q-79 0 -138.5 -65.5t-59.5 -183.5v-808h-129v855q0 92 -51 144t-122 52q-49 0 -94.5 -26t-75.5 -78q-14 -27 -21 -56.5t-7 -66.5v-822h-129v1048v80h129v-80q25 48 92 79q34 16 68.5 24t74.5 8q79 0 141.5 -35t91.5 -109
q22 37 66 70t99 52.5t108 19.5q105 0 174 -80t69 -253v-824z" />
    <glyph glyph-name="n" unicode="n" 
d="M775 0h-129v888q0 86 -45.5 131t-114.5 45q-57 0 -108 -28.5t-85 -84.5t-34 -127v-824h-130v1048v83h130v-98q36 63 108.5 102t152.5 39q68 0 126 -32t93.5 -100t35.5 -170v-872z" />
    <glyph glyph-name="o" unicode="o" 
d="M826 564q0 -125 -22 -234q-11 -55 -27.5 -103.5t-40.5 -91.5q-46 -85 -120.5 -134.5t-178.5 -49.5q-359 0 -359 613q0 176 37.5 308.5t117.5 209.5q42 39 93 60t111 21q389 0 389 -599zM695 566q0 232 -52.5 358t-205.5 126q-88 0 -139 -73t-70 -164q-9 -46 -14 -83
t-5 -68v-67q0 -126 13.5 -242t65.5 -204q49 -85 149 -85q141 0 199.5 151t58.5 351z" />
    <glyph glyph-name="p" unicode="p" 
d="M802 566q0 -251 -60 -404q-30 -93 -104.5 -144t-164.5 -51q-78 0 -143 38t-104 108v-484h-129v1048v451h129v-95q35 71 101 110t142 39q69 0 131 -32t109.5 -98t65.5 -164q27 -146 27 -322zM679 566q0 139 -15 248t-65.5 180.5t-147.5 71.5q-104 0 -153 -70.5t-61 -169.5
q-5 -45 -8 -108.5t-3 -137.5q0 -248 52.5 -374t189.5 -126q63 0 111 61q25 31 43 71.5t31 98.5q26 112 26 255z" />
    <glyph glyph-name="q" unicode="q" 
d="M775 -388h-129v485q-25 -58 -96.5 -102.5t-149.5 -44.5q-130 0 -221 137q-47 70 -73 183t-26 263v23v19q0 214 45 350t118 196.5t160 60.5q71 0 137.5 -37t105.5 -95v80h129v-1048v-470zM646 548v82q0 44 -3 85.5t-11 91.5q-14 94 -57.5 169.5t-126.5 75.5l-27 -2
q-122 0 -170 -128t-48 -310q0 -73 6 -144l12 -125q4 -32 10.5 -64.5t15.5 -61.5q18 -58 62.5 -97.5t121.5 -39.5h20q121 0 158 132.5t37 335.5z" />
    <glyph glyph-name="r" unicode="r" horiz-adv-x="566" 
d="M533 1033q-119 -20 -170 -41t-77.5 -82t-26.5 -184v-726h-130v1048v82h130v-129q41 81 101.5 121.5t172.5 40.5v-130z" />
    <glyph glyph-name="s" unicode="s" horiz-adv-x="792" 
d="M733 282q0 -47 -7.5 -101t-55.5 -110t-121 -89t-154 -33q-82 0 -156 38q-38 21 -67 49.5t-57 73.5q-51 84 -66 212h130q0 -60 19 -108t51 -82q58 -61 139 -61q78 0 140 49q33 26 51 56.5t18 65.5l1 34q0 106 -59.5 165t-182 120.5t-188.5 112.5t-88 150q-9 42 -9 76
q0 83 43.5 145.5t116 96t148.5 33.5q58 0 112 -19.5t98 -58.5t72 -100q15 -33 24.5 -68.5t9.5 -73.5h-129q0 49 -14.5 87t-42.5 65q-52 52 -123 52t-124 -47t-53 -124q0 -78 51.5 -116.5t193 -114t210.5 -156t69 -219.5z" />
    <glyph glyph-name="t" unicode="t" horiz-adv-x="451" 
d="M404 0q-46 -23 -104 -23q-171 0 -171 233v32v775h-112v113h112v340h130v-340h145v-113h-145v-808q0 -118 71 -118q33 0 74 22v-113z" />
    <glyph glyph-name="u" unicode="u" 
d="M775 0h-129v113q-8 -35 -49.5 -69.5t-102 -56t-121.5 -21.5q-112 0 -186 77.5t-74 247.5v839h129v-871q0 -90 47 -137t117 -47q57 0 113.5 31t91.5 87.5t35 128.5v808h129v-1048v-82z" />
    <glyph glyph-name="v" unicode="v" horiz-adv-x="808" 
d="M759 1130l-269 -1048l-22 -82h-146l-266 1048l-23 82h129l242 -921l226 921h129z" />
    <glyph glyph-name="w" unicode="w" horiz-adv-x="1146" 
d="M1113 1130l-223 -1048l-18 -82h-130l-176 855l-162 -855h-129l-254 1048l-21 82h129l193 -921l178 921h146l162 -921l176 921h129z" />
    <glyph glyph-name="x" unicode="x" horiz-adv-x="792" 
d="M775 0h-145l-242 468l-226 -468h-145l305 580l-289 550h146l209 -435l209 435h145l-291 -550z" />
    <glyph glyph-name="y" unicode="y" horiz-adv-x="792" 
d="M792 1130l-283 -1048l-72 -261q-28 -83 -86 -147.5t-208 -64.5l-63 3v113q25 -5 53 -5q79 0 125.5 51t63.5 114t17 98l-263 1048l-27 99h130l242 -921l241 921h130z" />
    <glyph glyph-name="z" unicode="z" horiz-adv-x="679" 
d="M662 0h-629v113l500 904h-469v113h598v-113l-483 -904h483v-113z" />
    <glyph glyph-name="braceleft" unicode="{" horiz-adv-x="710" 
d="M566 -193q-17 -4 -37 -7t-39 -3q-95 0 -163 58t-68 178v467q0 59 -19 89t-55 51l-105 55q179 32 179 144v486q0 243 244 243l24 -1l23 -1l-58 -24q-29 -11 -51 -32q-22 -18 -39 -61q-14 -42 -14 -108v-437l1 -17l1 -25q0 -140 -164 -167q92 -32 127 -61.5t35 -116.5v-517
q0 -120 178 -193z" />
    <glyph glyph-name="bar" unicode="|" horiz-adv-x="451" 
d="M291 0h-145v1048v486h145v-1048v-486z" />
    <glyph glyph-name="braceright" unicode="}" horiz-adv-x="710" 
d="M630 695q-117 -33 -155.5 -79.5t-38.5 -113.5v-30l1 -35v-454q0 -102 -64 -143.5t-154 -41.5q-45 0 -90 9l51 15q31 9 61 29t51 59q10 20 15 44t5 56v30q-3 16 -4 24v404q0 80 36.5 131t80 73.5t59.5 22.5l-5 -1l-12 -1q-52 0 -102 38q-26 20 -41.5 55.5t-15.5 85.5v453
q0 52 -14 88.5t-36 58.5q-10 11 -24 22.5t-33 24.5l-72 47l45 3q119 0 191 -58t72 -156v-371q0 -171 53 -231.5t114 -60.5l15 1z" />
    <glyph glyph-name="asciitilde" unicode="~" 
d="M872 566q-102 -161 -234 -161q-41 0 -83 12q-42 15 -100 40l-99 40q-40 14 -74 14q-93 0 -153 -123l-80 63q91 172 223 172q41 0 79.5 -11.5t104.5 -38.5q19 -7 52.5 -20t48.5 -17q44 -13 77 -13q103 0 174 123z" />
    <glyph glyph-name="quotesinglbase" unicode="&#x201a;" horiz-adv-x="1967" 
 />
    <glyph glyph-name="quotedblbase" unicode="&#x201e;" horiz-adv-x="404" 
d="M275 0h-129v1048v82h129v-1048v-82z" />
    <glyph glyph-name="ellipsis" unicode="&#x2026;" horiz-adv-x="742" 
d="M484 1243h-129l-291 291h178z" />
    <glyph glyph-name="dagger" unicode="&#x2020;" horiz-adv-x="1967" 
 />
    <glyph glyph-name="daggerdbl" unicode="&#x2021;" horiz-adv-x="1967" 
 />
    <glyph glyph-name="perthousand" unicode="&#x2030;" horiz-adv-x="613" 
d="M613 1534l-291 -291h-112l241 291h162z" />
    <glyph glyph-name="OE" unicode="&#x152;" horiz-adv-x="1115" 
 />
    <glyph glyph-name="quoteleft" unicode="&#x2018;" horiz-adv-x="742" 
 />
    <glyph glyph-name="quoteright" unicode="&#x2019;" horiz-adv-x="1967" 
 />
    <glyph glyph-name="quotedblleft" unicode="&#x201c;" horiz-adv-x="1034" 
 />
    <glyph glyph-name="quotedblright" unicode="&#x201d;" horiz-adv-x="774" 
 />
    <glyph glyph-name="bullet" unicode="&#x2022;" horiz-adv-x="1227" 
 />
    <glyph glyph-name="endash" unicode="&#x2013;" horiz-adv-x="709" 
 />
    <glyph glyph-name="emdash" unicode="&#x2014;" horiz-adv-x="679" 
d="M484 484l-291 -225v129l211 178l-211 160v129l291 -209v-162z" />
    <glyph glyph-name="trademark" unicode="&#x2122;" horiz-adv-x="1033" 
d="M646 1243h-146l-161 211l-160 -211h-146l226 291h162z" />
    <glyph glyph-name="oe" unicode="&#x153;" horiz-adv-x="853" 
 />
    <glyph glyph-name="nonbreakingspace" unicode="&#xa0;" horiz-adv-x="250" 
 />
    <glyph glyph-name="exclamdown" unicode="&#xa1;" horiz-adv-x="451" 
d="M308 936h-146v194h146v-194zM308 -388h-146v581l17 566h112l17 -566v-581z" />
    <glyph glyph-name="cent" unicode="&#xa2;" 
d="M801 276q0 -101 -44.5 -169.5t-115.5 -101.5t-149 -33q-46 0 -88 11l-49 -274h-97l64 324q-31 18 -55 40t-44 53q-37 57 -57 169t-20 302q0 95 7 172t22 137q30 122 104 183t204 61h22t45 -4l47 242h98l-49 -258l-1 -7q0 -10 28 -34t48 -47.5t44 -88.5q13 -37 20 -75.5
t7 -85.5h-113q0 99 -66 192l-176 -871q38 -15 77 -15q74 0 120 58t46 175v13l-1 13v14h113q9 -54 9 -95zM533 1033q-29 8 -52 8q-112 0 -168 -132q-27 -67 -40 -145t-13 -177q0 -152 28.5 -277.5t66.5 -147.5z" />
    <glyph glyph-name="sterling" unicode="&#xa3;" 
d="M888 49q-66 -72 -172 -72q-37 0 -67.5 5t-110.5 24q-22 5 -59 13.5t-59.5 12.5t-44 6t-46.5 2q-118 0 -200 -73l-80 82q244 163 244 427q0 97 -34 203h-226v96h176q-90 198 -90 360q0 104 36.5 184t98 128t140.5 66q42 9 79 9q73 0 141.5 -27t121.5 -79t86.5 -134
t33.5 -185l-1 -31h-129l2 43q0 89 -38 156t-98 102.5t-126 35.5q-89 0 -151.5 -69.5t-62.5 -202.5q0 -149 87 -356h323v-96h-274q30 -77 30 -183q0 -120 -40 -219t-119 -148q50 24 105 24q56 0 155 -33q52 -16 88.5 -24t65.5 -8q86 0 166 58z" />
    <glyph glyph-name="currency" unicode="&#xa4;" 
d="M946 587q0 -160 -91 -296l82 -82l-113 -112l-82 82q-128 -84 -265 -84q-149 0 -284 98l-80 -80l-113 113l80 82q-85 128 -85 262q0 137 85 285l-80 82l113 113l96 -96q149 97 287 97q142 0 263 -97l80 79l98 -96l-82 -82q91 -104 91 -268zM800 580q0 160 -121 244
q-100 77 -204 77q-45 0 -87 -13q-126 -46 -187 -129t-61 -183q0 -84 42.5 -161t119.5 -124t173 -47q52 0 105 15q99 27 159.5 120t60.5 201z" />
    <glyph glyph-name="yen" unicode="&#xa5;" 
d="M954 1517l-404 -871v-66h274v-112h-274v-80h274v-113h-274v-275h-146v275h-275v113h275v80h-275v112h275v66l-404 871h162l306 -709l340 709h146z" />
    <glyph glyph-name="brokenbar" unicode="&#xa6;" 
d="M888 1501l-33 -113q-40 22 -75 22q-66 0 -110 -72q-40 -69 -62 -158q-18 -86 -42 -226h242v-99h-258l-146 -872q-38 -369 -285 -369q-45 0 -102 15l32 129q42 -25 75 -25q89 0 135 154l162 968h-228v99h244q13 33 33 152.5t45.5 203.5t86 145.5t169.5 61.5q53 0 117 -16z
" />
    <glyph glyph-name="section" unicode="&#xa7;" 
d="M855 566q0 -98 -56.5 -184.5t-152.5 -122.5q129 -126 129 -256q0 -83 -49.5 -152t-129.5 -109t-167 -40q-80 0 -147.5 37t-114.5 119q-25 44 -38 91q-16 56 -16 115h113q10 -91 43.5 -149.5t78.5 -84.5t96 -26q73 0 134.5 48t68.5 115l1 25q0 67 -29 119.5t-79 98.5
q-22 21 -48 42.5t-46 35.5l-187 133q-215 158 -215 341q0 88 52.5 163t145.5 125q-111 125 -111 247q0 82 46.5 147.5t123.5 103t157 37.5q78 0 147.5 -38t114.5 -118t55 -203h-113q0 41 -9.5 76.5t-26.5 68.5q-31 59 -80.5 87.5t-101.5 28.5q-73 0 -126 -49
q-28 -25 -43.5 -57t-15.5 -73l-2 -23q0 -95 68.5 -159t215.5 -160.5t229 -185.5q41 -45 63 -98.5t22 -115.5zM741 565q0 53 -20 95.5t-59 65.5l-354 258q-80 -26 -119.5 -84t-39.5 -128q0 -107 77 -175l354 -275q75 28 118 96.5t43 146.5z" />
    <glyph glyph-name="dieresis" unicode="&#xa8;" horiz-adv-x="451" 
d="M580 1259h-129v211h129v-211zM242 1259h-129v211h129v-211z" />
    <glyph glyph-name="copyright" unicode="&#xa9;" horiz-adv-x="1614" 
d="M1632 753q0 -72 -14.5 -144t-42.5 -144q-54 -140 -156 -251.5t-248 -176.5q-75 -34 -157 -52t-175 -18h-17q-94 0 -175.5 15t-158.5 48q-149 63 -253 172t-161 247q-28 72 -43.5 143t-15.5 142l-1 14v12q0 147 51 284.5t155 249t260 179.5q85 37 173 57t186 20
q97 0 180.5 -18t164.5 -54q149 -64 250 -174q97 -106 149 -246q49 -135 49 -283v-22zM1510 797q0 141 -48 251t-131 188t-190 123.5t-226 57.5l-76 3q-132 0 -255.5 -42t-222.5 -125t-157.5 -211t-58.5 -287v-13l1 -16q0 -126 49 -236q46 -104 136 -189q173 -165 415 -198
q53 -8 110 -8q100 0 197 27t180.5 81.5t145.5 139.5t91 190q40 135 40 264zM1243 613q-33 -193 -193 -274q-92 -46 -189 -46q-117 0 -222.5 61t-170 169t-64.5 236v15q0 122 66.5 223t174 158.5t218.5 57.5q122 0 219 -72t144 -220h-113q-40 97 -106.5 143.5t-146.5 46.5
q-76 0 -149 -42t-118 -115.5t-45 -161.5q0 -23 2 -33q0 -53 15 -103t40 -95q48 -81 117.5 -123t146.5 -42q88 0 159.5 56t101.5 161h113z" />
    <glyph glyph-name="ordfeminine" unicode="&#xaa;" horiz-adv-x="533" 
d="M517 872q0 -21 -48 -21q-31 0 -57 14.5t-26 42.5l2 13q-90 -67 -179 -67q-83 0 -124.5 56t-41.5 135q0 87 37 134q28 34 93 56l125 42q59 19 73 48q19 43 19 77q0 52 -36 84q-19 16 -38.5 24t-45.5 8q-48 0 -83 -34q-18 -17 -29.5 -41.5t-11.5 -54.5h-66l-3 35
q0 69 49 114.5t149 45.5q107 0 141.5 -34t34.5 -95v-500q33 -33 66 -33v-49zM468 679h-388v80h388v-80zM371 1050v176q-58 -12 -126 -43q-36 -15 -56.5 -28t-26.5 -25q-31 -50 -31 -99q0 -52 35.5 -85t80.5 -33q43 0 79 35t45 102z" />
    <glyph glyph-name="guillemotleft" unicode="&#xab;" horiz-adv-x="1017" 
d="M839 242l-306 226v129l306 242v-144l-209 -162l209 -145v-146zM451 259l-305 225v129l305 242v-145l-209 -160l209 -146v-145z" />
    <glyph glyph-name="logicalnot" unicode="&#xac;" horiz-adv-x="968" 
d="M872 193h-97v436h-726v113h823v-549z" />
    <glyph glyph-name="minus" unicode="&#xad;" horiz-adv-x="1967" 
 />
    <glyph glyph-name="registered" unicode="&#xae;" horiz-adv-x="1614" 
d="M1612 767q0 -235 -96 -411t-270 -275q-94 -54 -189 -82q-107 -32 -218 -32l-41 -1q-201 0 -375 111t-277 298t-103 405q0 153 54 303q90 174 206.5 287.5t245.5 166t264 52.5q142 0 274 -52q69 -27 127.5 -61.5t115.5 -81.5q109 -92 180 -209.5t89 -247.5
q13 -101 13 -170zM1507 770q0 120 -37 231q-53 135 -152 245t-229.5 173t-266.5 63q-150 0 -287.5 -79t-251 -215t-137.5 -284l-2 -77q0 -247 93 -417t245.5 -252t328.5 -82q238 0 432 133q82 65 142 155.5t91 192.5t31 213zM1232 943q0 -103 -75 -160t-203 -57l272 -404
h-129l-258 404h-193v-418h-96v904l147 -3l97 1h102q59 0 100 -3t75 -11q62 -13 100.5 -58t54.5 -137q6 -29 6 -58zM1126 979q0 59 -40 102q-21 23 -51 36t-67 13h-322v-306h322q71 0 114.5 46.5t43.5 108.5z" />
    <glyph glyph-name="macron" unicode="&#xaf;" horiz-adv-x="1967" 
 />
    <glyph glyph-name="degree" unicode="&#xb0;" horiz-adv-x="1967" 
 />
    <glyph glyph-name="plusminus" unicode="&#xb1;" horiz-adv-x="1017" 
d="M1017 566h-1034v129h1034v-129z" />
    <glyph glyph-name="twosuperior" unicode="&#xb2;" 
d="M824 1001h-324v-1048v-195h-112v1048v195h-339v96h339v469h112v-469h324v-96z" />
    <glyph glyph-name="threesuperior" unicode="&#xb3;" 
d="M824 226h-324v-452h-129v452h-322v113h322v711h-322v113h322v451h129v-451h324v-113h-324v-711h324v-113z" />
    <glyph glyph-name="acute" unicode="&#xb4;" horiz-adv-x="1967" 
 />
    <glyph glyph-name="mu" unicode="&#xb5;" horiz-adv-x="1967" 
 />
    <glyph glyph-name="paragraph" unicode="&#xb6;" horiz-adv-x="1146" 
d="M937 -226h-129v1048v583h-211v-1048v-583h-129v968q-117 18 -198 78.5t-119.5 143.5t-38.5 176q0 98 44.5 190.5t129.5 148t198 55.5h453v-1048v-712z" />
    <glyph glyph-name="periodcentered" unicode="&#xb7;" horiz-adv-x="1226" 
d="M1017 759q0 -83 -50 -170.5t-135 -148t-186 -69.5h-13l-16 -1q-99 0 -190 49.5t-146 138t-55 201.5q0 169 112.5 271.5t258.5 115.5q103 0 196 -44.5t154 -131.5q32 -45 51 -98.5t19 -112.5z" />
    <glyph glyph-name="periodcentered" unicode="&#x2219;" horiz-adv-x="1226" 
d="M1017 759q0 -83 -50 -170.5t-135 -148t-186 -69.5h-13l-16 -1q-99 0 -190 49.5t-146 138t-55 201.5q0 169 112.5 271.5t258.5 115.5q103 0 196 -44.5t154 -131.5q32 -45 51 -98.5t19 -112.5z" />
    <glyph glyph-name="cedilla" unicode="&#xb8;" horiz-adv-x="613" 
d="M537 -246q0 -73 -63 -131.5t-167 -58.5q-90 0 -194 48l49 66q60 -31 114 -31q61 0 102.5 32t41.5 70q0 29 -27.5 47.5t-85.5 18.5q-31 0 -44 -1.5t-37 -6.5l-33 31l73 93l56 69h82l-96 -113q34 5 43.5 5h15.5q82 0 126 -39t44 -99z" />
    <glyph glyph-name="onesuperior" unicode="&#xb9;" horiz-adv-x="662" 
d="M550 -49q0 -86 -37 -150t-125 -76v82q39 15 55 34t21 52l4 107h-80v193h162v-242zM291 -49q0 -87 -36.5 -150.5t-125.5 -75.5v82q38 14 55.5 34.5t20 43t3.5 50t1 65.5h-80v193h162v-242z" />
    <glyph glyph-name="ordmasculine" unicode="&#xba;" horiz-adv-x="533" 
d="M503 1296l-3 -53v-40q0 -334 -205 -334l-36 3q-51 0 -88.5 16.5t-64.5 46.5q-49 56 -61 126t-12 165l10 114q0 27 6.5 53t18.5 55q19 49 69.5 84t142.5 35l28 -1q98 0 146.5 -79.5t48.5 -190.5zM451 679h-387v80h387v-80zM423 1287q0 214 -148 214q-163 0 -163 -259
l1 -23v-24q0 -92 7.5 -136t38 -75.5t100.5 -46.5l23 -3q60 0 99 67q20 34 30 85t10 126l1 32z" />
    <glyph glyph-name="guillemotright" unicode="&#xbb;" horiz-adv-x="1017" 
d="M872 468l-292 -226v129l212 179l-212 160v129l292 -209v-162zM484 484l-291 -225v129l211 178l-211 160v129l291 -209v-162z" />
    <glyph glyph-name="onequarter" unicode="&#xbc;" horiz-adv-x="2050" 
d="M1776 0h-162v179h162v-179zM1113 0h-159v179h159v-179zM437 0h-162v179h162v-179z" />
    <glyph glyph-name="onehalf" unicode="&#xbd;" horiz-adv-x="2050" 
d="M1954 404q0 -100 -16 -186.5t-74 -147.5q-29 -32 -71.5 -51t-96.5 -19l-24 -1q-138 0 -204 110t-66 268l3 60q0 48 12 89t35 80q41 69 100 102.5t127 33.5l25 2q78 0 130.5 -45.5t81.5 -121t38 -173.5zM591 1137q0 -99 -35 -185t-107.5 -139.5t-173.5 -53.5
q-78 0 -137 55t-90.5 142.5t-31.5 185.5q0 150 71 254.5t204 104.5l24 1q87 0 149 -51t94.5 -136t32.5 -178zM1017 1517l-406 -1047l-190 -487h-99l408 1048l191 486h96zM1328 364q0 -94 -31.5 -178.5t-94.5 -135t-152 -50.5t-154.5 53t-97.5 139t-32 179q0 98 32 182.5
t96 136.5t156 52q88 0 151 -53.5t95 -140.5t32 -184zM1841 371q0 115 -36.5 195.5t-108.5 80.5l-17 -1q-69 -14 -109.5 -69.5t-52.5 -188.5q0 -291 162 -291t162 274zM463 1152q0 113 -40.5 191t-114.5 78q-73 0 -115 -84q-20 -43 -30 -91t-10 -108q0 -111 38 -197t100 -86
q81 0 126.5 89.5t45.5 207.5zM1207 363q0 75 -18.5 143.5t-54.5 112t-84 43.5q-70 0 -111.5 -88t-41.5 -203q0 -113 40.5 -193.5t112.5 -80.5q77 0 117 77t40 189z" />
    <glyph glyph-name="threequarters" unicode="&#xbe;" horiz-adv-x="1967" 
 />
    <glyph glyph-name="questiondown" unicode="&#xbf;" horiz-adv-x="792" 
d="M500 954h-145v176h145v-176zM745 -17q0 -75 -28 -169t-101 -166.5t-198 -72.5q-99 0 -225 54q-160 88 -160 281q0 130 69 276.5t140 217.5q62 62 89.5 128.5t27.5 162.5q0 41 -4 80h113l2 -57q0 -118 -37.5 -204.5t-112.5 -195.5q-71 -103 -114 -188q-19 -41 -31.5 -90.5
t-12.5 -103.5q0 -61 34.5 -117t91.5 -90t115 -34q86 0 146 78q31 42 47.5 101.5t16.5 142.5h129q3 -8 3 -34z" />
    <glyph glyph-name="Agrave" unicode="&#xc0;" horiz-adv-x="1017" 
d="M1001 0h-146l-113 484h-451l-129 -484h-145l287 1048l133 486h143l287 -1048zM710 613l-210 775l-178 -775h388z" />
    <glyph glyph-name="Agrave" unicode="&#x410;" horiz-adv-x="1017" 
d="M1001 0h-146l-113 484h-451l-129 -484h-145l287 1048l133 486h143l287 -1048zM710 613l-210 775l-178 -775h388z" />
    <glyph glyph-name="Aacute" unicode="&#xc1;" horiz-adv-x="995" 
d="M931 464q0 -179 -50 -281t-156.5 -142.5t-283.5 -40.5h-322v1048v488h693v-121h-547v-525l219 2q209 0 328 -106.5t119 -321.5zM787 441q0 159 -86 239.5t-229 80.5h-207v-631h205l39 -1q278 0 278 312z" />
    <glyph glyph-name="Aacute" unicode="&#x411;" horiz-adv-x="995" 
d="M931 464q0 -179 -50 -281t-156.5 -142.5t-283.5 -40.5h-322v1048v488h693v-121h-547v-525l219 2q209 0 328 -106.5t119 -321.5zM787 441q0 159 -86 239.5t-229 80.5h-207v-631h205l39 -1q278 0 278 312z" />
    <glyph glyph-name="Acircumflex" unicode="&#xc2;" horiz-adv-x="1017" 
d="M947 453q0 -79 -21.5 -154.5t-76 -142t-153.5 -110.5q-51 -21 -113 -33.5t-132 -12.5h-322v1048v486h421q103 0 181 -48t119.5 -135.5t41.5 -194.5q0 -240 -213 -317q66 -12 128.5 -68.5t101 -142t38.5 -175.5zM755 1165q0 105 -71 180.5t-200 75.5h-209v-533l193 2
q47 0 85 9t72 29q64 39 97 102t33 135zM802 431q0 149 -73.5 238.5t-211.5 89.5h-242v-629l209 -2q152 0 235 86.5t83 216.5z" />
    <glyph glyph-name="Acircumflex" unicode="&#x412;" horiz-adv-x="1017" 
d="M947 453q0 -79 -21.5 -154.5t-76 -142t-153.5 -110.5q-51 -21 -113 -33.5t-132 -12.5h-322v1048v486h421q103 0 181 -48t119.5 -135.5t41.5 -194.5q0 -240 -213 -317q66 -12 128.5 -68.5t101 -142t38.5 -175.5zM755 1165q0 105 -71 180.5t-200 75.5h-209v-533l193 2
q47 0 85 9t72 29q64 39 97 102t33 135zM802 431q0 149 -73.5 238.5t-211.5 89.5h-242v-629l209 -2q152 0 235 86.5t83 216.5z" />
    <glyph glyph-name="Atilde" unicode="&#xc3;" horiz-adv-x="908" 
d="M849 1408h-554v-1047v-361h-149v1048v486h703v-126z" />
    <glyph glyph-name="Atilde" unicode="&#x413;" horiz-adv-x="908" 
d="M849 1408h-554v-1047v-361h-149v1048v486h703v-126z" />
    <glyph glyph-name="Adieresis" unicode="&#xc4;" horiz-adv-x="1175" 
d="M1120 -220h-140v217h-789v-208h-139v353l30 -2l20 -2q16 0 25 4q44 78 74 217q14 65 24.5 137t20 169t15 174.5t5.5 151.5q0 86 1 129q5 216 5 218l-1 196h775v-1048v-344h74v-362zM900 142v213v1047h-484v-31v-39q0 -372 -39.5 -722.5t-97.5 -467.5h621z" />
    <glyph glyph-name="Adieresis" unicode="&#x414;" horiz-adv-x="1175" 
d="M1120 -220h-140v217h-789v-208h-139v353l30 -2l20 -2q16 0 25 4q44 78 74 217q14 65 24.5 137t20 169t15 174.5t5.5 151.5q0 86 1 129q5 216 5 218l-1 196h775v-1048v-344h74v-362zM900 142v213v1047h-484v-31v-39q0 -372 -39.5 -722.5t-97.5 -467.5h621z" />
    <glyph glyph-name="Aring" unicode="&#xc5;" 
d="M839 0h-693v1048v486h693v-147h-548v-499h484v-146h-484v-596h548v-146z" />
    <glyph glyph-name="Aring" unicode="&#x415;" 
d="M839 0h-693v1048v486h693v-147h-548v-499h484v-146h-484v-596h548v-146z" />
    <glyph glyph-name="AE" unicode="&#xc6;" horiz-adv-x="1462" 
d="M1419 0h-150l-344 759l-123 -205v-554h-146v552l-123 207l-342 -759h-150l414 884l-387 650h156l432 -788v788h146v-785l428 785h158l-385 -650z" />
    <glyph glyph-name="AE" unicode="&#x416;" horiz-adv-x="1462" 
d="M1419 0h-150l-344 759l-123 -205v-554h-146v552l-123 207l-342 -759h-150l414 884l-387 650h156l432 -788v788h146v-785l428 785h158l-385 -650z" />
    <glyph glyph-name="Ccedilla" unicode="&#xc7;" horiz-adv-x="1118" 
d="M990 418q0 -437 -455 -437q-220 0 -320 148q-49 74 -76.5 160t-27.5 179h143q0 -86 33 -169q30 -79 92.5 -128.5t149.5 -49.5q83 0 156 32.5t116.5 94t43.5 142.5q0 140 -97 225q-50 44 -128 68.5t-183 24.5v147l49 -2q135 0 234.5 65t99.5 238q0 89 -39 150t-98.5 89
t-114.5 28q-96 0 -159.5 -52.5t-91.5 -127.5q-14 -39 -21 -72t-7 -68h-129q0 157 48.5 262.5t142 156.5t221.5 51q189 0 287 -109.5t98 -304.5q0 -326 -276 -372q139 -32 224 -122.5t85 -246.5z" />
    <glyph glyph-name="Ccedilla" unicode="&#x417;" horiz-adv-x="1118" 
d="M990 418q0 -437 -455 -437q-220 0 -320 148q-49 74 -76.5 160t-27.5 179h143q0 -86 33 -169q30 -79 92.5 -128.5t149.5 -49.5q83 0 156 32.5t116.5 94t43.5 142.5q0 140 -97 225q-50 44 -128 68.5t-183 24.5v147l49 -2q135 0 234.5 65t99.5 238q0 89 -39 150t-98.5 89
t-114.5 28q-96 0 -159.5 -52.5t-91.5 -127.5q-14 -39 -21 -72t-7 -68h-129q0 157 48.5 262.5t142 156.5t221.5 51q189 0 287 -109.5t98 -304.5q0 -326 -276 -372q139 -32 224 -122.5t85 -246.5z" />
    <glyph glyph-name="Egrave" unicode="&#xc8;" horiz-adv-x="1130" 
d="M1001 0h-146h146h-146v1048v277l-445 -1048l-119 -277h-162v1048v486h146v-1048v-260l225 582l322 726h179v-1048v-486z" />
    <glyph glyph-name="Egrave" unicode="&#x418;" horiz-adv-x="1130" 
d="M1001 0h-146h146h-146v1048v277l-445 -1048l-119 -277h-162v1048v486h146v-1048v-260l225 582l322 726h179v-1048v-486z" />
    <glyph glyph-name="Eacute" unicode="&#xc9;" horiz-adv-x="1122" 
d="M759 1732q0 -79 -61 -123.5t-145 -44.5q-81 0 -142.5 44t-61.5 121l2 20h82q0 -10 7 -23.5t20 -29.5t38.5 -26.5t61.5 -10.5q40 0 78.5 20t38.5 70h82v-17zM997 0h-146h146h-146v1048v277l-445 -1048l-119 -277h-162v1048v486h146v-1048v-260l225 582l322 726h179v-1048
v-486z" />
    <glyph glyph-name="Eacute" unicode="&#x419;" horiz-adv-x="1122" 
d="M759 1732q0 -79 -61 -123.5t-145 -44.5q-81 0 -142.5 44t-61.5 121l2 20h82q0 -10 7 -23.5t20 -29.5t38.5 -26.5t61.5 -10.5q40 0 78.5 20t38.5 70h82v-17zM997 0h-146h146h-146v1048v277l-445 -1048l-119 -277h-162v1048v486h146v-1048v-260l225 582l322 726h179v-1048
v-486z" />
    <glyph glyph-name="Ecircumflex" unicode="&#xca;" horiz-adv-x="1017" 
d="M984 0h-160l-403 759l-162 -209v-550h-146v1048v486h146v-759l533 759h176l-451 -646z" />
    <glyph glyph-name="Ecircumflex" unicode="&#x41a;" horiz-adv-x="1017" 
d="M984 0h-160l-403 759l-162 -209v-550h-146v1048v486h146v-759l533 759h176l-451 -646z" />
    <glyph glyph-name="Edieresis" unicode="&#xcb;" horiz-adv-x="1109" 
d="M982 0h-145v1048v348h-449q0 -107 -2 -227.5t-4 -231t-2 -171.5q0 -117 -8 -210t-24 -204q-24 -172 -77.5 -264t-141.5 -92q-55 0 -73 12v142l23 -4q55 0 77 70q26 86 39 159q7 35 13 83.5t11 112.5q0 23 9 196q5 96 5 161q0 78 1 175t2.5 202t1.5 229h744v-1048v-486z
" />
    <glyph glyph-name="Edieresis" unicode="&#x41b;" horiz-adv-x="1109" 
d="M982 0h-145v1048v348h-449q0 -107 -2 -227.5t-4 -231t-2 -171.5q0 -117 -8 -210t-24 -204q-24 -172 -77.5 -264t-141.5 -92q-55 0 -73 12v142l23 -4q55 0 77 70q26 86 39 159q7 35 13 83.5t11 112.5q0 23 9 196q5 96 5 161q0 78 1 175t2.5 202t1.5 229h744v-1048v-486z
" />
    <glyph glyph-name="Igrave" unicode="&#xcc;" horiz-adv-x="1470" 
d="M1325 0h-146v1048v307l-285 -1047l-86 -308h-146l-289 1048l-82 293v-1048v-293h-145v1048v486h225l277 -1048l78 -293l289 1048l82 293h228v-1048v-486z" />
    <glyph glyph-name="Igrave" unicode="&#x41c;" horiz-adv-x="1470" 
d="M1325 0h-146v1048v307l-285 -1047l-86 -308h-146l-289 1048l-82 293v-1048v-293h-145v1048v486h225l277 -1048l78 -293l289 1048l82 293h228v-1048v-486z" />
    <glyph glyph-name="Iacute" unicode="&#xcd;" horiz-adv-x="1130" 
d="M984 0h-145v742h-564v-742h-146v1048v486h146v-662h564v662h145v-1048v-486z" />
    <glyph glyph-name="Iacute" unicode="&#x41d;" horiz-adv-x="1130" 
d="M984 0h-145v742h-564v-742h-146v1048v486h146v-662h564v662h145v-1048v-486z" />
    <glyph glyph-name="Icircumflex" unicode="&#xce;" horiz-adv-x="1130" 
d="M1017 775q0 -164 -10 -281q0 -58 -13.5 -116.5t-39.5 -128.5q-43 -123 -142 -202q-48 -40 -114 -60t-148 -20q-199 0 -296 130.5t-119 298.5q-10 80 -16 183t-6 213v50l-1 69q0 79 7 153t22 141q30 135 132 237q51 52 125.5 80t167.5 28q67 0 122.5 -15.5t103.5 -45.5
q87 -53 137 -153q23 -47 41 -108.5t28 -127.5q19 -133 19 -325zM888 713v62v53q0 141 -19 267t-90.5 227.5t-212.5 114.5q-130 0 -201 -83.5t-97 -231t-26 -347.5q0 -170 19.5 -315t86.5 -259q36 -59 85.5 -90t116.5 -31h9h8q140 0 211.5 100.5t90.5 233.5q9 68 14 142.5
t5 156.5z" />
    <glyph glyph-name="Icircumflex" unicode="&#x41e;" horiz-adv-x="1130" 
d="M1017 775q0 -164 -10 -281q0 -58 -13.5 -116.5t-39.5 -128.5q-43 -123 -142 -202q-48 -40 -114 -60t-148 -20q-199 0 -296 130.5t-119 298.5q-10 80 -16 183t-6 213v50l-1 69q0 79 7 153t22 141q30 135 132 237q51 52 125.5 80t167.5 28q67 0 122.5 -15.5t103.5 -45.5
q87 -53 137 -153q23 -47 41 -108.5t28 -127.5q19 -133 19 -325zM888 713v62v53q0 141 -19 267t-90.5 227.5t-212.5 114.5q-130 0 -201 -83.5t-97 -231t-26 -347.5q0 -170 19.5 -315t86.5 -259q36 -59 85.5 -90t116.5 -31h9h8q140 0 211.5 100.5t90.5 233.5q9 68 14 142.5
t5 156.5z" />
    <glyph glyph-name="Idieresis" unicode="&#xcf;" horiz-adv-x="1099" 
d="M966 0h-146v1048v359h-551v-1048v-359h-146v1048v486h843v-1048v-486z" />
    <glyph glyph-name="Idieresis" unicode="&#x41f;" horiz-adv-x="1099" 
d="M966 0h-146v1048v359h-551v-1048v-359h-146v1048v486h843v-1048v-486z" />
    <glyph glyph-name="Eth" unicode="&#xd0;" horiz-adv-x="1040" 
d="M979 1142q0 -111 -38 -194.5t-103.5 -139t-155 -84.5t-182.5 -29h-192v-695h-146v1048v486h355q125 0 215.5 -30t143.5 -82.5t78 -122t25 -157.5zM843 1136q0 92 -42.5 156t-114.5 96.5t-155 32.5h-223v-596h225q77 0 148.5 34.5t116.5 105.5t45 171z" />
    <glyph glyph-name="Eth" unicode="&#x420;" horiz-adv-x="1040" 
d="M979 1142q0 -111 -38 -194.5t-103.5 -139t-155 -84.5t-182.5 -29h-192v-695h-146v1048v486h355q125 0 215.5 -30t143.5 -82.5t78 -122t25 -157.5zM843 1136q0 92 -42.5 156t-114.5 96.5t-155 32.5h-223v-596h225q77 0 148.5 34.5t116.5 105.5t45 171z" />
    <glyph glyph-name="Ntilde" unicode="&#xd1;" horiz-adv-x="1130" 
d="M1017 533q0 -150 -44 -268q-40 -107 -111 -179q-131 -135 -312 -135q-208 0 -314.5 209.5t-106.5 614.5l16 226q0 68 15 140q11 54 36 128q39 123 128 202t242 79q139 0 232.5 -46.5t143.5 -145.5q27 -53 43 -119t16 -142h-146q0 78 -22 141.5t-59 111.5q-68 87 -208 87
q-88 0 -145.5 -52t-89.5 -148t-44 -225.5t-12 -301.5q0 -251 61.5 -440.5t260.5 -189.5q97 0 159 68.5t89 172.5t27 212h145z" />
    <glyph glyph-name="Ntilde" unicode="&#x421;" horiz-adv-x="1130" 
d="M1017 533q0 -150 -44 -268q-40 -107 -111 -179q-131 -135 -312 -135q-208 0 -314.5 209.5t-106.5 614.5l16 226q0 68 15 140q11 54 36 128q39 123 128 202t242 79q139 0 232.5 -46.5t143.5 -145.5q27 -53 43 -119t16 -142h-146q0 78 -22 141.5t-59 111.5q-68 87 -208 87
q-88 0 -145.5 -52t-89.5 -148t-44 -225.5t-12 -301.5q0 -251 61.5 -440.5t260.5 -189.5q97 0 159 68.5t89 172.5t27 212h145z" />
    <glyph glyph-name="Ograve" unicode="&#xd2;" 
d="M872 1387h-355v-1046v-341h-146v1047v340h-354v147h855v-147z" />
    <glyph glyph-name="Ograve" unicode="&#x422;" 
d="M872 1387h-355v-1046v-341h-146v1047v340h-354v147h855v-147z" />
    <glyph glyph-name="Oacute" unicode="&#xd3;" horiz-adv-x="978" 
d="M933 1532l-328 -917l-158 -473q-26 -67 -64.5 -98t-80.5 -40q-17 -4 -44 -6t-57 -2l4 142h17q30 0 54 14q13 8 29 23t36 41l102 334l-435 982h164l337 -810l272 810h152z" />
    <glyph glyph-name="Oacute" unicode="&#x423;" horiz-adv-x="978" 
d="M933 1532l-328 -917l-158 -473q-26 -67 -64.5 -98t-80.5 -40q-17 -4 -44 -6t-57 -2l4 142h17q30 0 54 14q13 8 29 23t36 41l102 334l-435 982h164l337 -810l272 810h152z" />
    <glyph glyph-name="Ocircumflex" unicode="&#xd4;" horiz-adv-x="1288" 
d="M1233 936q0 -246 -107 -356t-267 -110h-149v-470h-146v470h-141q-163 0 -269.5 111t-106.5 355v34q0 208 111 321.5t297 113.5h109v129h146v-129h110q189 0 300.5 -113t111.5 -322zM1103 956q0 58 -11.5 105.5t-30.5 89.5q-30 67 -86.5 96t-153.5 29h-14l-11 -1h-86v-676
l149 4q152 0 198 103t46 250zM564 603v672h-80l-11 1h-13q-93 0 -149 -28.5t-87 -97.5q-17 -39 -28 -87.5t-11 -106.5q0 -93 12 -164t64 -127q27 -29 67.5 -45.5t94.5 -16.5h141z" />
    <glyph glyph-name="Ocircumflex" unicode="&#x424;" horiz-adv-x="1288" 
d="M1233 936q0 -246 -107 -356t-267 -110h-149v-470h-146v470h-141q-163 0 -269.5 111t-106.5 355v34q0 208 111 321.5t297 113.5h109v129h146v-129h110q189 0 300.5 -113t111.5 -322zM1103 956q0 58 -11.5 105.5t-30.5 89.5q-30 67 -86.5 96t-153.5 29h-14l-11 -1h-86v-676
l149 4q152 0 198 103t46 250zM564 603v672h-80l-11 1h-13q-93 0 -149 -28.5t-87 -97.5q-17 -39 -28 -87.5t-11 -106.5q0 -93 12 -164t64 -127q27 -29 67.5 -45.5t94.5 -16.5h141z" />
    <glyph glyph-name="Otilde" unicode="&#xd5;" horiz-adv-x="1017" 
d="M984 0h-160l-324 646l-321 -646h-162l387 792l-371 742h176l291 -597l292 597h176l-371 -742z" />
    <glyph glyph-name="Otilde" unicode="&#x425;" horiz-adv-x="1017" 
d="M984 0h-160l-324 646l-321 -646h-162l387 792l-371 742h176l291 -597l292 597h176l-371 -742z" />
    <glyph glyph-name="Odieresis" unicode="&#xd6;" horiz-adv-x="1107" 
d="M1042 -220h-140v218h-775v1048v488h146v-1048v-356h547v1047v357h146v-1048v-356h76v-350z" />
    <glyph glyph-name="Odieresis" unicode="&#x426;" horiz-adv-x="1107" 
d="M1042 -220h-140v218h-775v1048v488h146v-1048v-356h547v1047v357h146v-1048v-356h76v-350z" />
    <glyph glyph-name="multiply" unicode="&#xd7;" horiz-adv-x="1115" 
d="M976 0h-145v610h-447h-19q-105 0 -168 63t-63 172v14v671h145v-665l-1 -32q0 -53 19 -70t87 -25h447v792h145v-1048v-482z" />
    <glyph glyph-name="multiply" unicode="&#x427;" horiz-adv-x="1115" 
d="M976 0h-145v610h-447h-19q-105 0 -168 63t-63 172v14v671h145v-665l-1 -32q0 -53 19 -70t87 -25h447v792h145v-1048v-482z" />
    <glyph glyph-name="Oslash" unicode="&#xd8;" horiz-adv-x="1704" 
d="M1579 0h-1048h-404v1048v486h146v-1048v-346h504v1047v347h146v-1048v-346h510v1047v347h146v-1048v-486z" />
    <glyph glyph-name="Oslash" unicode="&#x428;" horiz-adv-x="1704" 
d="M1579 0h-1048h-404v1048v486h146v-1048v-346h504v1047v347h146v-1048v-346h510v1047v347h146v-1048v-486z" />
    <glyph glyph-name="Ugrave" unicode="&#xd9;" horiz-adv-x="1712" 
d="M1634 -195h-129v195h-1048h-334v1048v486h146v-1048v-346h504v1047v347h146v-1048v-346h510v1047v347h146v-1048v-346l59 -11v-324z" />
    <glyph glyph-name="Ugrave" unicode="&#x429;" horiz-adv-x="1712" 
d="M1634 -195h-129v195h-1048h-334v1048v486h146v-1048v-346h504v1047v347h146v-1048v-346h510v1047v347h146v-1048v-346l59 -11v-324z" />
    <glyph glyph-name="Uacute" unicode="&#xda;" horiz-adv-x="1107" 
d="M1031 412q0 -201 -125.5 -306.5t-347.5 -105.5h-345v1048v348h-176v138h322v-691h201q142 0 247 -44t164.5 -140t59.5 -247zM892 412q0 298 -320 298h-213v-600h215q41 0 79.5 8.5t76.5 25.5q72 33 117 100.5t45 167.5z" />
    <glyph glyph-name="Uacute" unicode="&#x42a;" horiz-adv-x="1107" 
d="M1031 412q0 -201 -125.5 -306.5t-347.5 -105.5h-345v1048v348h-176v138h322v-691h201q142 0 247 -44t164.5 -140t59.5 -247zM892 412q0 298 -320 298h-213v-600h215q41 0 79.5 8.5t76.5 25.5q72 33 117 100.5t45 167.5z" />
    <glyph glyph-name="Ucircumflex" unicode="&#xdb;" horiz-adv-x="1386" 
d="M1247 0h-146v1048v486h146v-1048v-486zM949 412q0 -201 -123.5 -306.5t-345.5 -105.5h-344v1048v486h145v-691h201q143 0 247 -44t162 -141t58 -246zM814 412q0 298 -320 298h-213v-600h215q41 0 79.5 8.5t76.5 25.5q72 33 117 100.5t45 167.5z" />
    <glyph glyph-name="Ucircumflex" unicode="&#x42b;" horiz-adv-x="1386" 
d="M1247 0h-146v1048v486h146v-1048v-486zM949 412q0 -201 -123.5 -306.5t-345.5 -105.5h-344v1048v486h145v-691h201q143 0 247 -44t162 -141t58 -246zM814 412q0 298 -320 298h-213v-600h215q41 0 79.5 8.5t76.5 25.5q72 33 117 100.5t45 167.5z" />
    <glyph glyph-name="Udieresis" unicode="&#xdc;" horiz-adv-x="1025" 
d="M945 412q0 -133 -55.5 -226t-157.5 -139.5t-236 -46.5h-369v1048v486h146v-691h201q142 0 247 -44t164.5 -140t59.5 -247zM806 412q0 298 -320 298h-213v-600h215q40 0 78.5 8.5t77.5 25.5q72 33 117 100.5t45 167.5z" />
    <glyph glyph-name="Udieresis" unicode="&#x42c;" horiz-adv-x="1025" 
d="M945 412q0 -133 -55.5 -226t-157.5 -139.5t-236 -46.5h-369v1048v486h146v-691h201q142 0 247 -44t164.5 -140t59.5 -247zM806 412q0 298 -320 298h-213v-600h215q40 0 78.5 8.5t77.5 25.5q72 33 117 100.5t45 167.5z" />
    <glyph glyph-name="Yacute" unicode="&#xdd;" horiz-adv-x="1101" 
d="M988 759q0 -113 -12 -239.5t-53.5 -255t-128.5 -217.5q-46 -47 -101 -71t-125 -24q-108 0 -205.5 48.5t-165.5 170.5q-37 68 -58 144q-24 88 -24 188h148q0 -109 25 -204.5t85 -158t156 -62.5q132 0 199.5 101t87.5 234q9 65 14 135t5 144h-523v149h523q0 137 -19 242
t-54 188q-63 150 -208 150q-131 0 -204 -85.5t-73 -250.5h-148q0 55 10 105.5t27 100.5q30 86 82.5 140t128.5 79.5t177 25.5q434 0 434 -777z" />
    <glyph glyph-name="Yacute" unicode="&#x42d;" horiz-adv-x="1101" 
d="M988 759q0 -113 -12 -239.5t-53.5 -255t-128.5 -217.5q-46 -47 -101 -71t-125 -24q-108 0 -205.5 48.5t-165.5 170.5q-37 68 -58 144q-24 88 -24 188h148q0 -109 25 -204.5t85 -158t156 -62.5q132 0 199.5 101t87.5 234q9 65 14 135t5 144h-523v149h523q0 137 -19 242
t-54 188q-63 150 -208 150q-131 0 -204 -85.5t-73 -250.5h-148q0 55 10 105.5t27 100.5q30 86 82.5 140t128.5 79.5t177 25.5q434 0 434 -777z" />
    <glyph glyph-name="Thorn" unicode="&#xde;" horiz-adv-x="1513" 
d="M1409 773q0 -172 -12 -299.5t-56 -242.5t-139.5 -187t-250.5 -72q-189 0 -286 122t-123.5 290t-26.5 373h-232v-760l-145 1v1048l2 490h143v-646h228q0 125 11.5 224t55 200.5t136.5 169.5q48 35 110.5 55.5t135.5 20.5q66 0 119.5 -16.5t102.5 -46.5q87 -56 136 -155
t70 -239t21 -330zM1277 859q0 554 -317 584q-128 0 -198 -84t-94 -228.5t-24 -357.5q0 -135 15 -253t47 -226q63 -212 248 -212q145 0 216 111t88.5 256t17.5 324z" />
    <glyph glyph-name="Thorn" unicode="&#x42e;" horiz-adv-x="1513" 
d="M1409 773q0 -172 -12 -299.5t-56 -242.5t-139.5 -187t-250.5 -72q-189 0 -286 122t-123.5 290t-26.5 373h-232v-760l-145 1v1048l2 490h143v-646h228q0 125 11.5 224t55 200.5t136.5 169.5q48 35 110.5 55.5t135.5 20.5q66 0 119.5 -16.5t102.5 -46.5q87 -56 136 -155
t70 -239t21 -330zM1277 859q0 554 -317 584q-128 0 -198 -84t-94 -228.5t-24 -357.5q0 -135 15 -253t47 -226q63 -212 248 -212q145 0 216 111t88.5 256t17.5 324z" />
    <glyph glyph-name="germandbls" unicode="&#xdf;" horiz-adv-x="1081" 
d="M956 0h-146v681h-236l-330 -685h-176l369 718q-78 8 -137.5 64t-92 145t-32.5 192q0 92 25.5 167.5t78.5 132.5t129 88q39 15 83 23t96 8h369v-1048v-486zM810 825v588l-207 2q-76 0 -136.5 -36.5t-96.5 -106.5t-36 -163q0 -74 27 -139.5t78.5 -106t116.5 -40.5l29 2h225
z" />
    <glyph glyph-name="germandbls" unicode="&#x42f;" horiz-adv-x="1081" 
d="M956 0h-146v681h-236l-330 -685h-176l369 718q-78 8 -137.5 64t-92 145t-32.5 192q0 92 25.5 167.5t78.5 132.5t129 88q39 15 83 23t96 8h369v-1048v-486zM810 825v588l-207 2q-76 0 -136.5 -36.5t-96.5 -106.5t-36 -163q0 -74 27 -139.5t78.5 -106t116.5 -40.5l29 2h225
z" />
    <glyph glyph-name="agrave" unicode="&#xe0;" horiz-adv-x="792" 
d="M759 0h-48l-36 -1q-48 0 -71.5 8t-35 30.5t-18.5 75.5q-46 -57 -64.5 -75.5t-69.5 -36.5t-141 -18q-114 0 -177 79t-63 210q0 60 14 132q21 102 92 157t195 97.5t169 67t45 82.5q0 158 -44 216.5t-135 58.5q-90 0 -126.5 -53t-51.5 -175h-129q0 135 72.5 229.5
t218.5 94.5q127 0 197.5 -37t98.5 -114q14 -40 21 -88.5t7 -115.5v-615q0 -62 3 -81.5t18 -25t59 -5.5v-97zM550 404v242q-15 -29 -77 -56l-139 -60q-77 -33 -124.5 -81.5t-47.5 -126.5q0 -114 31.5 -169.5t128.5 -55.5q72 0 123 36t78 105t27 166z" />
    <glyph glyph-name="agrave" unicode="&#x430;" horiz-adv-x="792" 
d="M759 0h-48l-36 -1q-48 0 -71.5 8t-35 30.5t-18.5 75.5q-46 -57 -64.5 -75.5t-69.5 -36.5t-141 -18q-114 0 -177 79t-63 210q0 60 14 132q21 102 92 157t195 97.5t169 67t45 82.5q0 158 -44 216.5t-135 58.5q-90 0 -126.5 -53t-51.5 -175h-129q0 135 72.5 229.5
t218.5 94.5q127 0 197.5 -37t98.5 -114q14 -40 21 -88.5t7 -115.5v-615q0 -62 3 -81.5t18 -25t59 -5.5v-97zM550 404v242q-15 -29 -77 -56l-139 -60q-77 -33 -124.5 -81.5t-47.5 -126.5q0 -114 31.5 -169.5t128.5 -55.5q72 0 123 36t78 105t27 166z" />
    <glyph glyph-name="aacute" unicode="&#xe1;" horiz-adv-x="886" 
d="M796 580q0 -157 -28.5 -297.5t-110 -235.5t-228.5 -95q-127 0 -200.5 71.5t-104.5 205.5t-31 333q0 316 16.5 491t55 267t104.5 124t180 32q125 0 150 49h117q-19 -85 -69.5 -129.5t-114.5 -44.5l-100 -3q-25 0 -46.5 -6t-42.5 -18q-38 -21 -69.5 -82t-49.5 -182
q37 47 82.5 71.5t118.5 33.5q173 0 263 -120q48 -63 74 -142q30 -90 30 -191zM682 566q0 152 -19 257t-75 169t-163 64q-123 0 -170.5 -137.5t-47.5 -254.5v-80q0 -98 7 -178q0 -40 7 -77t21 -86q21 -79 66 -129t117 -50q97 0 154 75t80 190t23 237z" />
    <glyph glyph-name="aacute" unicode="&#x431;" horiz-adv-x="886" 
d="M796 580q0 -157 -28.5 -297.5t-110 -235.5t-228.5 -95q-127 0 -200.5 71.5t-104.5 205.5t-31 333q0 316 16.5 491t55 267t104.5 124t180 32q125 0 150 49h117q-19 -85 -69.5 -129.5t-114.5 -44.5l-100 -3q-25 0 -46.5 -6t-42.5 -18q-38 -21 -69.5 -82t-49.5 -182
q37 47 82.5 71.5t118.5 33.5q173 0 263 -120q48 -63 74 -142q30 -90 30 -191zM682 566q0 152 -19 257t-75 169t-163 64q-123 0 -170.5 -137.5t-47.5 -254.5v-80q0 -98 7 -178q0 -40 7 -77t21 -86q21 -79 66 -129t117 -50q97 0 154 75t80 190t23 237z" />
    <glyph glyph-name="acircumflex" unicode="&#xe2;" horiz-adv-x="843" 
d="M775 285q0 -95 -47.5 -160.5t-126 -95.5t-163.5 -30l-26 1h-305v1048v82h273q158 0 246 -62.5t88 -181.5q0 -97 -36 -179.5t-106 -107.5q93 -27 148 -92q27 -33 41 -87.5t14 -134.5zM593 839q0 91 -45.5 132.5t-135.5 41.5h-176v-371h176q181 0 181 197zM650 308
q0 91 -25.5 138t-72 63t-125.5 16h-191v-412l207 -2q78 12 116 25t64.5 52.5t26.5 119.5z" />
    <glyph glyph-name="acircumflex" unicode="&#x432;" horiz-adv-x="843" 
d="M775 285q0 -95 -47.5 -160.5t-126 -95.5t-163.5 -30l-26 1h-305v1048v82h273q158 0 246 -62.5t88 -181.5q0 -97 -36 -179.5t-106 -107.5q93 -27 148 -92q27 -33 41 -87.5t14 -134.5zM593 839q0 91 -45.5 132.5t-135.5 41.5h-176v-371h176q181 0 181 197zM650 308
q0 91 -25.5 138t-72 63t-125.5 16h-191v-412l207 -2q78 12 116 25t64.5 52.5t26.5 119.5z" />
    <glyph glyph-name="atilde" unicode="&#xe3;" horiz-adv-x="751" 
d="M703 1015h-463v-1015h-129v1048v82h592v-115z" />
    <glyph glyph-name="atilde" unicode="&#x433;" horiz-adv-x="751" 
d="M703 1015h-463v-1015h-129v1048v82h592v-115z" />
    <glyph glyph-name="adieresis" unicode="&#xe4;" horiz-adv-x="892" 
d="M841 -216h-131v216h-519v-216h-135v329h82q40 87 62 255q18 134 22 173q10 97 10 185q0 61 7 196t7 208h523v-1017h72v-329zM640 113v900h-281v-29l1 -35q0 -49 -3 -116q-7 -156 -7 -198q0 -58 -4.5 -110t-24 -191t-46.5 -221h365z" />
    <glyph glyph-name="adieresis" unicode="&#x434;" horiz-adv-x="892" 
d="M841 -216h-131v216h-519v-216h-135v329h82q40 87 62 255q18 134 22 173q10 97 10 185q0 61 7 196t7 208h523v-1017h72v-329zM640 113v900h-281v-29l1 -35q0 -49 -3 -116q-7 -156 -7 -198q0 -58 -4.5 -110t-24 -191t-46.5 -221h365z" />
    <glyph glyph-name="aring" unicode="&#xe5;" horiz-adv-x="792" 
d="M731 668v-17v-14v-12q0 -47 -5 -75h-533v-17q0 -86 13.5 -188t60.5 -191.5t137 -89.5q97 0 146.5 76.5t49.5 169.5l-3 45h129l1 -37q0 -182 -96.5 -274.5t-226.5 -92.5q-57 0 -104.5 18.5t-85.5 52.5q-71 66 -103.5 161.5t-39.5 175t-7 174.5q0 93 5 160.5t18 130.5
q22 116 65.5 188t106 103t145.5 31q111 0 183.5 -61.5t108 -171t35.5 -245.5zM597 662q0 371 -193 371q-98 0 -149 -84q-27 -45 -43 -113q-19 -79 -19 -174h404z" />
    <glyph glyph-name="aring" unicode="&#x435;" horiz-adv-x="792" 
d="M731 668v-17v-14v-12q0 -47 -5 -75h-533v-17q0 -86 13.5 -188t60.5 -191.5t137 -89.5q97 0 146.5 76.5t49.5 169.5l-3 45h129l1 -37q0 -182 -96.5 -274.5t-226.5 -92.5q-57 0 -104.5 18.5t-85.5 52.5q-71 66 -103.5 161.5t-39.5 175t-7 174.5q0 93 5 160.5t18 130.5
q22 116 65.5 188t106 103t145.5 31q111 0 183.5 -61.5t108 -171t35.5 -245.5zM597 662q0 371 -193 371q-98 0 -149 -84q-27 -45 -43 -113q-19 -79 -19 -174h404z" />
    <glyph glyph-name="ae" unicode="&#xe6;" horiz-adv-x="1101" 
d="M1068 0h-114l-257 578l-90 -135v-443h-123v443l-86 135l-258 -578h-113l297 689l-279 441h134l305 -523v523h123v-523l310 523h129l-275 -441z" />
    <glyph glyph-name="ae" unicode="&#x436;" horiz-adv-x="1101" 
d="M1068 0h-114l-257 578l-90 -135v-443h-123v443l-86 135l-258 -578h-113l297 689l-279 441h134l305 -523v523h123v-523l310 523h129l-275 -441z" />
    <glyph glyph-name="ccedilla" unicode="&#xe7;" horiz-adv-x="847" 
d="M730 271q0 -165 -93.5 -242.5t-250.5 -77.5q-97 0 -159 37.5t-91.5 94t-41.5 121.5q-5 34 -8.5 67t-3.5 63h121q10 -81 23.5 -134t54 -96.5t117.5 -43.5q95 0 150 50.5t55 143.5l1 19q0 88 -64 152t-205 64l-29 -1v109l35 -2q105 0 183.5 49t78.5 178q0 103 -58 158.5
t-147 55.5q-108 0 -150 -85q-22 -46 -33.5 -90.5t-11.5 -95.5h-121q0 90 25 163.5t70.5 128.5t105.5 82.5t125 27.5q144 0 232 -84t88 -261q0 -78 -28.5 -138t-77.5 -95t-99 -35l-20 2q32 0 73.5 -24.5t75.5 -61.5t56 -88.5t22 -110.5z" />
    <glyph glyph-name="ccedilla" unicode="&#x437;" horiz-adv-x="847" 
d="M730 271q0 -165 -93.5 -242.5t-250.5 -77.5q-97 0 -159 37.5t-91.5 94t-41.5 121.5q-5 34 -8.5 67t-3.5 63h121q10 -81 23.5 -134t54 -96.5t117.5 -43.5q95 0 150 50.5t55 143.5l1 19q0 88 -64 152t-205 64l-29 -1v109l35 -2q105 0 183.5 49t78.5 178q0 103 -58 158.5
t-147 55.5q-108 0 -150 -85q-22 -46 -33.5 -90.5t-11.5 -95.5h-121q0 90 25 163.5t70.5 128.5t105.5 82.5t125 27.5q144 0 232 -84t88 -261q0 -78 -28.5 -138t-77.5 -95t-99 -35l-20 2q32 0 73.5 -24.5t75.5 -61.5t56 -88.5t22 -110.5z" />
    <glyph glyph-name="egrave" unicode="&#xe8;" horiz-adv-x="861" 
d="M744 0h-129v900l-365 -900h-123v1048v82h130v-865l358 865h129v-1048v-82z" />
    <glyph glyph-name="egrave" unicode="&#x438;" horiz-adv-x="861" 
d="M744 0h-129v900l-365 -900h-123v1048v82h130v-865l358 865h129v-1048v-82z" />
    <glyph glyph-name="eacute" unicode="&#xe9;" horiz-adv-x="861" 
d="M630 1340q0 -74 -59.5 -117t-141.5 -43q-81 0 -141.5 42.5t-60.5 119.5l1 13h78q17 -24 52 -55t79 -31q64 0 113 86h80v-15zM742 0h-129v896l-365 -896h-121v1048v82h130v-867l356 863h129v-1048v-78z" />
    <glyph glyph-name="eacute" unicode="&#x439;" horiz-adv-x="861" 
d="M630 1340q0 -74 -59.5 -117t-141.5 -43q-81 0 -141.5 42.5t-60.5 119.5l1 13h78q17 -24 52 -55t79 -31q64 0 113 86h80v-15zM742 0h-129v896l-365 -896h-121v1048v82h130v-867l356 863h129v-1048v-78z" />
    <glyph glyph-name="ecircumflex" unicode="&#xea;" horiz-adv-x="802" 
d="M759 0h-127l-269 578l-104 -145v-433h-130v1048v82h130v-494l342 494h141l-305 -441z" />
    <glyph glyph-name="ecircumflex" unicode="&#x43a;" horiz-adv-x="802" 
d="M759 0h-127l-269 578l-104 -145v-433h-130v1048v82h130v-494l342 494h141l-305 -441z" />
    <glyph glyph-name="edieresis" unicode="&#xeb;" horiz-adv-x="872" 
d="M746 0h-129v1011h-295q0 -96 -8 -326q-4 -115 -4 -159q0 -92 -9.5 -161t-27.5 -147q-24 -114 -66 -166t-104 -52q-38 0 -62 8v126l32 -3q51 0 69 72q19 114 30.5 208.5t11.5 183.5q0 65 2 146.5t4.5 202.5t2.5 186h553v-1048v-82z" />
    <glyph glyph-name="edieresis" unicode="&#x43b;" horiz-adv-x="872" 
d="M746 0h-129v1011h-295q0 -96 -8 -326q-4 -115 -4 -159q0 -92 -9.5 -161t-27.5 -147q-24 -114 -66 -166t-104 -52q-38 0 -62 8v126l32 -3q51 0 69 72q19 114 30.5 208.5t11.5 183.5q0 65 2 146.5t4.5 202.5t2.5 186h553v-1048v-82z" />
    <glyph glyph-name="igrave" unicode="&#xec;" horiz-adv-x="1001" 
d="M869 0h-123v884l-38 -193l-173 -691h-78l-170 691l-39 193v-884h-123v1048v82h150l223 -904l216 904h155v-1048v-82z" />
    <glyph glyph-name="igrave" unicode="&#x43c;" horiz-adv-x="1001" 
d="M869 0h-123v884l-38 -193l-173 -691h-78l-170 691l-39 193v-884h-123v1048v82h150l223 -904l216 904h155v-1048v-82z" />
    <glyph glyph-name="iacute" unicode="&#xed;" horiz-adv-x="855" 
d="M738 0h-129v523h-357v-523h-129v1048v82h129v-484h357v484h129v-1048v-82z" />
    <glyph glyph-name="iacute" unicode="&#x43d;" horiz-adv-x="855" 
d="M738 0h-129v523h-357v-523h-129v1048v82h129v-484h357v484h129v-1048v-82z" />
    <glyph glyph-name="icircumflex" unicode="&#xee;" 
d="M826 564q0 -125 -22 -234q-11 -55 -27.5 -103.5t-40.5 -91.5q-46 -85 -120.5 -134.5t-178.5 -49.5q-359 0 -359 613q0 176 37.5 308.5t117.5 209.5q42 39 93 60t111 21q389 0 389 -599zM695 566q0 232 -52.5 358t-205.5 126q-88 0 -139 -73t-70 -164q-9 -46 -14 -83
t-5 -68v-67q0 -126 13.5 -242t65.5 -204q49 -85 149 -85q141 0 199.5 151t58.5 351z" />
    <glyph glyph-name="icircumflex" unicode="&#x43e;" 
d="M826 564q0 -125 -22 -234q-11 -55 -27.5 -103.5t-40.5 -91.5q-46 -85 -120.5 -134.5t-178.5 -49.5q-359 0 -359 613q0 176 37.5 308.5t117.5 209.5q42 39 93 60t111 21q389 0 389 -599zM695 566q0 232 -52.5 358t-205.5 126q-88 0 -139 -73t-70 -164q-9 -46 -14 -83
t-5 -68v-67q0 -126 13.5 -242t65.5 -204q49 -85 149 -85q141 0 199.5 151t58.5 351z" />
    <glyph glyph-name="idieresis" unicode="&#xef;" horiz-adv-x="874" 
d="M751 0h-130v1011h-362v-1011h-130v1048v82h622v-1048v-82z" />
    <glyph glyph-name="idieresis" unicode="&#x43f;" horiz-adv-x="874" 
d="M751 0h-130v1011h-362v-1011h-130v1048v82h622v-1048v-82z" />
    <glyph glyph-name="eth" unicode="&#xf0;" 
d="M802 566q0 -251 -60 -404q-30 -93 -104.5 -144t-164.5 -51q-78 0 -143 38t-104 108v-484h-129v1048v451h129v-95q35 71 101 110t142 39q69 0 131 -32t109.5 -98t65.5 -164q27 -146 27 -322zM679 566q0 139 -15 248t-65.5 180.5t-147.5 71.5q-104 0 -153 -70.5t-61 -169.5
q-5 -45 -8 -108.5t-3 -137.5q0 -248 52.5 -374t189.5 -126q63 0 111 61q25 31 43 71.5t31 98.5q26 112 26 255z" />
    <glyph glyph-name="eth" unicode="&#x440;" 
d="M802 566q0 -251 -60 -404q-30 -93 -104.5 -144t-164.5 -51q-78 0 -143 38t-104 108v-484h-129v1048v451h129v-95q35 71 101 110t142 39q69 0 131 -32t109.5 -98t65.5 -164q27 -146 27 -322zM679 566q0 139 -15 248t-65.5 180.5t-147.5 71.5q-104 0 -153 -70.5t-61 -169.5
q-5 -45 -8 -108.5t-3 -137.5q0 -248 52.5 -374t189.5 -126q63 0 111 61q25 31 43 71.5t31 98.5q26 112 26 255z" />
    <glyph glyph-name="ntilde" unicode="&#xf1;" horiz-adv-x="792" 
d="M710 371q0 -106 -26 -199.5t-97.5 -157t-198.5 -63.5q-340 0 -340 566l1 80q0 154 18.5 260t58 173.5t100 100t145.5 32.5q154 0 239 -94.5t85 -276.5h-115q-10 115 -63 186.5t-146 71.5q-110 0 -151 -117.5t-41 -319.5v-71q0 -189 37 -325.5t155 -136.5q91 0 137 40
t59 99.5t13 151.5h130z" />
    <glyph glyph-name="ntilde" unicode="&#x441;" horiz-adv-x="792" 
d="M710 371q0 -106 -26 -199.5t-97.5 -157t-198.5 -63.5q-340 0 -340 566l1 80q0 154 18.5 260t58 173.5t100 100t145.5 32.5q154 0 239 -94.5t85 -276.5h-115q-10 115 -63 186.5t-146 71.5q-110 0 -151 -117.5t-41 -319.5v-71q0 -189 37 -325.5t155 -136.5q91 0 137 40
t59 99.5t13 151.5h130z" />
    <glyph glyph-name="ograve" unicode="&#xf2;" horiz-adv-x="640" 
d="M599 1015h-222v-1015h-129v1015h-211v115h562v-115z" />
    <glyph glyph-name="ograve" unicode="&#x442;" horiz-adv-x="640" 
d="M599 1015h-222v-1015h-129v1015h-211v115h562v-115z" />
    <glyph glyph-name="oacute" unicode="&#xf3;" horiz-adv-x="818" 
d="M769 1130l-283 -1048l-72 -261q-29 -84 -86 -148t-207 -64l-63 3v113q25 -5 52 -5q81 0 126.5 51t62.5 114t17 98l-262 1048l-27 99h129l242 -921l242 921h129z" />
    <glyph glyph-name="oacute" unicode="&#x443;" horiz-adv-x="818" 
d="M769 1130l-283 -1048l-72 -261q-29 -84 -86 -148t-207 -64l-63 3v113q25 -5 52 -5q81 0 126.5 51t62.5 114t17 98l-262 1048l-27 99h129l242 -921l242 921h129z" />
    <glyph glyph-name="ocircumflex" unicode="&#xf4;" horiz-adv-x="1427" 
d="M1357 578q0 -343 -93.5 -475t-244.5 -132q-159 0 -234 140v-482h-129v482q-74 -140 -233 -140q-151 0 -245 131.5t-94 475.5q0 338 99.5 461.5t259.5 123.5q55 0 126 -38t87 -85v508h129v-508q18 46 88.5 84.5t125.5 38.5q100 0 180 -47q77 -44 129 -176q49 -128 49 -362
zM1226 541q0 230 -42.5 370.5t-184.5 140.5q-99 -3 -145.5 -68.5t-57.5 -158.5q-5 -43 -8 -103.5t-3 -134.5q0 -84 5 -152.5t15 -126.5q20 -108 71.5 -168t144.5 -60q101 0 153 119.5t52 341.5zM656 587q0 153 -11 242.5t-58.5 155t-147.5 65.5q-141 3 -182 -135t-41 -371
q0 -464 200 -464q136 0 188 126.5t52 380.5z" />
    <glyph glyph-name="ocircumflex" unicode="&#x444;" horiz-adv-x="1427" 
d="M1357 578q0 -343 -93.5 -475t-244.5 -132q-159 0 -234 140v-482h-129v482q-74 -140 -233 -140q-151 0 -245 131.5t-94 475.5q0 338 99.5 461.5t259.5 123.5q55 0 126 -38t87 -85v508h129v-508q18 46 88.5 84.5t125.5 38.5q100 0 180 -47q77 -44 129 -176q49 -128 49 -362
zM1226 541q0 230 -42.5 370.5t-184.5 140.5q-99 -3 -145.5 -68.5t-57.5 -158.5q-5 -43 -8 -103.5t-3 -134.5q0 -84 5 -152.5t15 -126.5q20 -108 71.5 -168t144.5 -60q101 0 153 119.5t52 341.5zM656 587q0 153 -11 242.5t-58.5 155t-147.5 65.5q-141 3 -182 -135t-41 -371
q0 -464 200 -464q136 0 188 126.5t52 380.5z" />
    <glyph glyph-name="otilde" unicode="&#xf5;" horiz-adv-x="792" 
d="M775 0h-145l-242 468l-226 -468h-145l305 580l-289 550h146l209 -435l209 435h145l-291 -550z" />
    <glyph glyph-name="otilde" unicode="&#x445;" horiz-adv-x="792" 
d="M775 0h-145l-242 468l-226 -468h-145l305 580l-289 550h146l209 -435l209 435h145l-291 -550z" />
    <glyph glyph-name="odieresis" unicode="&#xf6;" horiz-adv-x="849" 
d="M806 -211h-125v211h-558v1048v82h129v-1013h357v1013h127v-1013h70v-328z" />
    <glyph glyph-name="odieresis" unicode="&#x446;" horiz-adv-x="849" 
d="M806 -211h-125v211h-558v1048v82h129v-1013h357v1013h127v-1013h70v-328z" />
    <glyph glyph-name="divide" unicode="&#xf7;" horiz-adv-x="853" 
d="M744 0h-129v482q-123 -66 -242 -66q-113 0 -185.5 68t-72.5 205v441h129v-427q0 -175 151 -175q46 0 99 14t121 45v543h129v-1048v-82z" />
    <glyph glyph-name="divide" unicode="&#x447;" horiz-adv-x="853" 
d="M744 0h-129v482q-123 -66 -242 -66q-113 0 -185.5 68t-72.5 205v441h129v-427q0 -175 151 -175q46 0 99 14t121 45v543h129v-1048v-82z" />
    <glyph glyph-name="oslash" unicode="&#xf8;" horiz-adv-x="1392" 
d="M1277 0h-1047h-111v1048v84h129v-1015h384v1015h129v-1015h387v1015h129v-1048v-84z" />
    <glyph glyph-name="oslash" unicode="&#x448;" horiz-adv-x="1392" 
d="M1277 0h-1047h-111v1048v84h129v-1015h384v1015h129v-1015h387v1015h129v-1048v-84z" />
    <glyph glyph-name="ugrave" unicode="&#xf9;" horiz-adv-x="1392" 
d="M1337 -211h-125v211h-1048h-55v1048v84h129v-1015h383v1015h130v-1015h387v1015h129v-1015h70v-328z" />
    <glyph glyph-name="ugrave" unicode="&#x449;" horiz-adv-x="1392" 
d="M1337 -211h-125v211h-1048h-55v1048v84h129v-1015h383v1015h130v-1015h387v1015h129v-1015h70v-328z" />
    <glyph glyph-name="uacute" unicode="&#xfa;" horiz-adv-x="923" 
d="M839 306q0 -104 -45.5 -173.5t-125.5 -101t-188 -31.5h-303v1009h-134v119h263v-467h168h16q91 0 154 -18.5t107 -60.5t66 -112t22 -164zM712 314q0 87 -28.5 136t-76.5 65q-24 8 -53 13t-62 5h-186v-411l184 2q222 0 222 190z" />
    <glyph glyph-name="uacute" unicode="&#x44a;" horiz-adv-x="923" 
d="M839 306q0 -104 -45.5 -173.5t-125.5 -101t-188 -31.5h-303v1009h-134v119h263v-467h168h16q91 0 154 -18.5t107 -60.5t66 -112t22 -164zM712 314q0 87 -28.5 136t-76.5 65q-24 8 -53 13t-62 5h-186v-411l184 2q222 0 222 190z" />
    <glyph glyph-name="ucircumflex" unicode="&#xfb;" horiz-adv-x="1181" 
d="M1058 -2h-129v1048v82h129v-1048v-82zM781 306q0 -150 -97.5 -228t-260.5 -78h-304v1048v80h129v-467h168h15q120 0 196 -34.5t115 -113.5t39 -207zM654 314q0 88 -28 136t-77 65q-24 8 -53 13t-61 5h-187v-412h181q225 0 225 193z" />
    <glyph glyph-name="ucircumflex" unicode="&#x44b;" horiz-adv-x="1181" 
d="M1058 -2h-129v1048v82h129v-1048v-82zM781 306q0 -150 -97.5 -228t-260.5 -78h-304v1048v80h129v-467h168h15q120 0 196 -34.5t115 -113.5t39 -207zM654 314q0 88 -28 136t-77 65q-24 8 -53 13t-61 5h-187v-412h181q225 0 225 193z" />
    <glyph glyph-name="udieresis" unicode="&#xfc;" horiz-adv-x="872" 
d="M781 308q0 -150 -97.5 -228t-260.5 -78h-304v1048v80h129v-468h168h15q120 0 196 -34.5t115 -113t39 -206.5zM654 316q0 88 -28 136t-77 65q-24 8 -53 13t-61 5h-187v-411l185 2q221 0 221 190z" />
    <glyph glyph-name="udieresis" unicode="&#x44c;" horiz-adv-x="872" 
d="M781 308q0 -150 -97.5 -228t-260.5 -78h-304v1048v80h129v-468h168h15q120 0 196 -34.5t115 -113t39 -206.5zM654 316q0 88 -28 136t-77 65q-24 8 -53 13t-61 5h-187v-411l185 2q221 0 221 190z" />
    <glyph glyph-name="yacute" unicode="&#xfd;" horiz-adv-x="824" 
d="M733 526q0 -291 -81 -432t-246 -141q-184 0 -253 120.5t-69 289.5h125q0 -293 199 -293q107 0 149 126q21 64 33.5 142.5t12.5 161.5h-359v111h359q0 447 -189 447q-85 0 -138.5 -75t-66.5 -196h-110q0 186 82 282t233 96q112 0 182 -57.5t103 -182t33 -324.5z" />
    <glyph glyph-name="yacute" unicode="&#x44d;" horiz-adv-x="824" 
d="M733 526q0 -291 -81 -432t-246 -141q-184 0 -253 120.5t-69 289.5h125q0 -293 199 -293q107 0 149 126q21 64 33.5 142.5t12.5 161.5h-359v111h359q0 447 -189 447q-85 0 -138.5 -75t-66.5 -196h-110q0 186 82 282t233 96q112 0 182 -57.5t103 -182t33 -324.5z" />
    <glyph glyph-name="thorn" unicode="&#xfe;" horiz-adv-x="1210" 
d="M1113 569q0 -608 -360 -608q-125 0 -197.5 65t-105.5 190q-16 62 -26 140.5t-10 166.5h-168v-523h-129v1048v82h129v-482h172l3 33q0 83 21 191t93.5 199.5t213.5 91.5q170 0 260 -119q47 -63 73.5 -145.5t26.5 -184.5q0 -41 1.5 -81t2.5 -64zM1001 570q0 233 -51 359.5
t-201 126.5q-124 0 -172 -135.5t-48 -253.5v-63q0 -139 13 -248.5t62.5 -196.5t144.5 -87q94 0 150.5 74.5t79.5 186.5q10 54 16 115.5t6 121.5z" />
    <glyph glyph-name="thorn" unicode="&#x44e;" horiz-adv-x="1210" 
d="M1113 569q0 -608 -360 -608q-125 0 -197.5 65t-105.5 190q-16 62 -26 140.5t-10 166.5h-168v-523h-129v1048v82h129v-482h172l3 33q0 83 21 191t93.5 199.5t213.5 91.5q170 0 260 -119q47 -63 73.5 -145.5t26.5 -184.5q0 -41 1.5 -81t2.5 -64zM1001 570q0 233 -51 359.5
t-201 126.5q-124 0 -172 -135.5t-48 -253.5v-63q0 -139 13 -248.5t62.5 -196.5t144.5 -87q94 0 150.5 74.5t79.5 186.5q10 54 16 115.5t6 121.5z" />
    <glyph glyph-name="ydieresis" unicode="&#xff;" horiz-adv-x="880" 
d="M749 0h-130v465h-168l-252 -465h-150l273 482q-126 27 -185 109t-59 250q0 145 89.5 216t231.5 71h32h318v-1048v-80zM619 599v414h-209q-71 -9 -108 -22t-63 -53q-13 -19 -21.5 -49.5t-8.5 -68.5q0 -128 54 -175q27 -22 68.5 -34t97.5 -12h190z" />
    <glyph glyph-name="ydieresis" unicode="&#x44f;" horiz-adv-x="880" 
d="M749 0h-130v465h-168l-252 -465h-150l273 482q-126 27 -185 109t-59 250q0 145 89.5 216t231.5 71h32h318v-1048v-80zM619 599v414h-209q-71 -9 -108 -22t-63 -53q-13 -19 -21.5 -49.5t-8.5 -68.5q0 -128 54 -175q27 -22 68.5 -34t97.5 -12h190z" />
    <glyph glyph-name="c274" unicode="&#x2015;" horiz-adv-x="1967" 
 />
    <glyph glyph-name="c275" unicode="&#x2016;" horiz-adv-x="1967" 
 />
    <glyph glyph-name="c276" unicode="&#x2017;" horiz-adv-x="1967" 
 />
    <glyph glyph-name="c277" unicode="&#x201b;" horiz-adv-x="1967" 
 />
    <glyph glyph-name="c278" unicode="&#x201f;" horiz-adv-x="1967" 
 />
    <glyph glyph-name="c279" unicode="&#x2023;" horiz-adv-x="1967" 
 />
    <glyph glyph-name="c280" unicode="&#x2024;" horiz-adv-x="1967" 
 />
    <glyph glyph-name="c281" unicode="&#x2025;" horiz-adv-x="1967" 
 />
    <glyph glyph-name="c282" unicode="&#x2027;" horiz-adv-x="1967" 
 />
    <glyph glyph-name="c283" unicode="&#x2028;" horiz-adv-x="1967" 
 />
    <glyph glyph-name="c284" unicode="&#x2029;" horiz-adv-x="1967" 
 />
    <glyph glyph-name="c285" unicode="&#x202a;" horiz-adv-x="1967" 
 />
    <glyph glyph-name="c286" unicode="&#x202b;" horiz-adv-x="1967" 
 />
    <glyph glyph-name="c287" unicode="&#x202c;" horiz-adv-x="1967" 
 />
    <glyph glyph-name="c288" unicode="&#x202d;" horiz-adv-x="1967" 
 />
    <glyph glyph-name="c289" unicode="&#x202e;" horiz-adv-x="1967" 
 />
    <glyph glyph-name="c290" unicode="&#x202f;" horiz-adv-x="1967" 
 />
    <glyph glyph-name="_extra1" unicode="&#x123;" horiz-adv-x="775" 
d="M662 1484q-39 -205 -168 -205q-21 0 -36 2t-36 9l-89 34l-85 33q-16 5 -31 8t-30 3q-75 0 -90 -109h-97q60 206 187 206q32 0 68.5 -11t86.5 -34l79 -33q27 -10 54 -10q70 0 91 107h96z" />
    <glyph glyph-name="_extra2" unicode="&#x124;" horiz-adv-x="710" 
d="M630 1550q-7 -86 -50 -148t-109.5 -93.5t-137.5 -31.5q-72 0 -141 31.5t-116 93.5t-59 148h96q0 -40 19 -72t57 -59q69 -51 154 -51q78 0 131 46q28 23 43.5 57t15.5 79h97z" />
    <glyph glyph-name="_extra3" unicode="&#x125;" horiz-adv-x="679" 
d="M569 1388q0 -46 -20 -84.5t-66 -64.5q-22 -12 -51.5 -19.5t-60.5 -7.5l-9 -1h-8q-96 0 -148.5 56.5t-52.5 133.5q0 84 53 149t139 65l26 -1q83 0 140.5 -70.5t57.5 -155.5zM494 1411q0 51 -35.5 87t-103.5 36q-58 -6 -94 -42.5t-36 -81.5q0 -86 114 -118q18 -6 38 -6
q52 0 84.5 37.5t32.5 87.5z" />
    <glyph glyph-name="_extra4" unicode="&#x126;" horiz-adv-x="872" 
d="M775 0h-129v1048v486h129v-1048v-486zM468 1437q-68 0 -96.5 -9.5t-39.5 -39.5q-10 -32 -10 -96v-162h129v-113h-129v-1017h-129v1017h-129v113h129v178q0 87 21 135t57.5 68.5t94.5 27.5l102 11v-113z" />
  </font>
</defs>
</svg>
